<?xml version='1.0' encoding='utf-8'?>
<svg width="368.4093459848mm" height="513.0000000004mm" viewBox="-16.4855244362 -22.9556446598 32.9710488724 45.9112893196" version="1.1" xmlns="http://www.w3.org/2000/svg">
  <g transform="scale(1,-1)" stroke-linecap="round">
    <g fill="none" stroke="rgb(64,192,64)" stroke-width="0.08949569068141106" id="Visible">
      <line x1="16.4407765909" y1="15.9546604988" x2="16.4407765909" y2="16.3212348478" />
      <line x1="16.4407765909" y1="16.3212348478" x2="0.0" y2="-22.5443224654" />
      <line x1="0.0" y1="-22.9108968144" x2="0.0" y2="-22.5443224654" />
      <line x1="16.4407765909" y1="15.9546604988" x2="0.0" y2="-22.9108968144" />
      <line x1="0.0" y1="22.9108968144" x2="16.4407765909" y2="16.3212348478" />
      <line x1="0.0" y1="-22.5443224654" x2="-16.4407765909" y2="-15.9546604988" />
      <line x1="-16.4407765909" y1="-16.3212348478" x2="-16.4407765909" y2="-15.9546604988" />
      <line x1="0.0" y1="-22.9108968144" x2="-16.4407765909" y2="-16.3212348478" />
      <path d="M -1.4945270627,-21.1138148726 A 0.8255,0.8035423448276104 -180.0 0,0 0.1129491979,-21.1138148726" />
      <path d="M -0.1868741636,-18.8276056189 A 0.5,0.4867003905679046 180.0 0,0 0.7395053095,-18.8276056189" />
      <path d="M 0.7802303417,-16.5413963652 A 0.5,0.4867003905679046 180.0 0,0 1.7066098149,-16.5413963652" />
      <path d="M 1.7473348471,-14.2551871114 A 0.5,0.4867003905679046 180.0 0,0 2.6737143202,-14.2551871114" />
      <path d="M 2.7144393524,-11.9689778577 A 0.5,0.4867003905679046 180.0 0,0 3.6408188255,-11.9689778577" />
      <path d="M 3.6815438578,-9.682768604 A 0.5,0.4867003905679046 180.0 0,0 4.6079233309,-9.682768604" />
      <path d="M 4.6486483631,-7.3965593503 A 0.5,0.4867003905679046 180.0 0,0 5.5750278362,-7.3965593503" />
      <path d="M 5.6157528685,-5.1103500966 A 0.5,0.4867003905679046 180.0 0,0 6.5421323416,-5.1103500966" />
      <path d="M 6.5828573738,-2.8241408428 A 0.5,0.4867003905679046 180.0 0,0 7.5092368469,-2.8241408428" />
      <path d="M 7.5499618792,-0.5379315891 A 0.5,0.4867003905679046 180.0 0,0 8.4763413523,-0.5379315891" />
      <path d="M 8.5170663845,1.7482776646 A 0.5,0.4867003905679046 180.0 0,0 9.4434458576,1.7482776646" />
      <path d="M 9.4841708899,4.0344869183 A 0.5,0.4867003905679046 180.0 0,0 10.410550363,4.0344869183" />
      <path d="M 10.4512753952,6.3206961721 A 0.5,0.4867003905679046 180.0 0,0 11.3776548683,6.3206961721" />
      <path d="M 11.4183799006,8.6069054258 A 0.5,0.4867003905679046 180.0 0,0 12.3447593737,8.6069054258" />
      <path d="M 12.3854844059,10.8931146795 A 0.5,0.4867003905679046 180.0 0,0 13.311863879,10.8931146795" />
      <path d="M 13.3525889112,13.1793239332 A 0.5,0.4867003905679046 180.0 0,0 14.2789683844,13.1793239332" />
      <path d="M 13.9791450229,15.4655331869 A 0.8255,0.8035423448276104 180.0 0,0 15.5866212834,15.4655331869" />
      <path d="M -15.5866212834,-15.4655331869 A 0.8255,0.8035423448276104 -180.0 0,0 -13.9791450229,-15.4655331869" />
      <path d="M -14.2789683844,-13.1793239332 A 0.5,0.4867003905679046 180.0 0,0 -13.3525889112,-13.1793239332" />
      <path d="M -13.311863879,-10.8931146795 A 0.5,0.4867003905679046 180.0 0,0 -12.3854844059,-10.8931146795" />
      <path d="M -12.3447593737,-8.6069054258 A 0.5,0.4867003905679046 180.0 0,0 -11.4183799006,-8.6069054258" />
      <path d="M -11.3776548683,-6.3206961721 A 0.5,0.4867003905679046 180.0 0,0 -10.4512753952,-6.3206961721" />
      <path d="M -10.410550363,-4.0344869183 A 0.5,0.4867003905679046 180.0 0,0 -9.4841708899,-4.0344869183" />
      <path d="M -9.4434458576,-1.7482776646 A 0.5,0.4867003905679046 180.0 0,0 -8.5170663845,-1.7482776646" />
      <path d="M -8.4763413523,0.5379315891 A 0.5,0.4867003905679046 180.0 0,0 -7.5499618792,0.5379315891" />
      <path d="M -7.5092368469,2.8241408428 A 0.5,0.4867003905679046 180.0 0,0 -6.5828573738,2.8241408428" />
      <path d="M -6.5421323416,5.1103500966 A 0.5,0.4867003905679046 180.0 0,0 -5.6157528685,5.1103500966" />
      <path d="M -5.5750278362,7.3965593503 A 0.5,0.4867003905679046 180.0 0,0 -4.6486483631,7.3965593503" />
      <path d="M -4.6079233309,9.682768604 A 0.5,0.4867003905679046 180.0 0,0 -3.6815438578,9.682768604" />
      <path d="M -3.6408188255,11.9689778577 A 0.5,0.4867003905679046 180.0 0,0 -2.7144393524,11.9689778577" />
      <path d="M -2.6737143202,14.2551871114 A 0.5,0.4867003905679046 180.0 0,0 -1.7473348471,14.2551871114" />
      <path d="M -1.7066098149,16.5413963652 A 0.5,0.4867003905679046 180.0 0,0 -0.7802303417,16.5413963652" />
      <path d="M -0.7395053095,18.8276056189 A 0.5,0.4867003905679046 180.0 0,0 0.1868741636,18.8276056189" />
      <path d="M -0.1129491979,21.1138148726 A 0.8255,0.8035423448276104 180.0 0,0 1.4945270627,21.1138148726" />
      <line x1="-16.4407765909" y1="-15.9546604988" x2="0.0" y2="22.9108968144" />
      <path d="M 0.0725328379,-21.2364762894 A 0.8255,0.8035423448276104 -180.0 0,0 -1.5162889324,-20.9305276981" />
      <path d="M -1.5162889324,-20.9305276981 A 0.8255,0.8035423448276104 -180.0 0,0 0.1347110676,-20.9305276981" />
      <path d="M 0.1347110676,-20.9305276981 A 0.8255,0.8035423448276104 -180.0 0,0 0.0725328379,-21.2364762894" />
      <path d="M 0.7386546222,-18.8296295233 A 0.5,0.4867003905679046 180.0 0,0 -0.223684427,-18.6443184444" />
      <path d="M -0.223684427,-18.6443184444 A 0.5,0.4867003905679046 180.0 0,0 0.776315573,-18.6443184444" />
      <path d="M 0.776315573,-18.6443184444 A 0.5,0.4867003905679046 180.0 0,0 0.7386546222,-18.8296295233" />
      <path d="M 1.7057591275,-16.5434202696 A 0.5,0.4867003905679046 180.0 0,0 0.7434200783,-16.3581091906" />
      <path d="M 0.7434200783,-16.3581091906 A 0.5,0.4867003905679046 180.0 0,0 1.7434200783,-16.3581091906" />
      <path d="M 1.7434200783,-16.3581091906 A 0.5,0.4867003905679046 180.0 0,0 1.7057591275,-16.5434202696" />
      <path d="M 2.6728636329,-14.2572110158 A 0.5,0.4867003905679046 180.0 0,0 1.7105245836,-14.0718999369" />
      <path d="M 1.7105245836,-14.0718999369 A 0.5,0.4867003905679046 180.0 0,0 2.7105245836,-14.0718999369" />
      <path d="M 2.7105245836,-14.0718999369 A 0.5,0.4867003905679046 180.0 0,0 2.6728636329,-14.2572110158" />
      <path d="M 3.6399681382,-11.9710017621 A 0.5,0.4867003905679046 180.0 0,0 2.677629089,-11.7856906832" />
      <path d="M 2.677629089,-11.7856906832 A 0.5,0.4867003905679046 180.0 0,0 3.677629089,-11.7856906832" />
      <path d="M 3.677629089,-11.7856906832 A 0.5,0.4867003905679046 180.0 0,0 3.6399681382,-11.9710017621" />
      <path d="M 4.6070726436,-9.6847925084 A 0.5,0.4867003905679046 180.0 0,0 3.6447335943,-9.4994814295" />
      <path d="M 3.6447335943,-9.4994814295 A 0.5,0.4867003905679046 180.0 0,0 4.6447335943,-9.4994814295" />
      <path d="M 4.6447335943,-9.4994814295 A 0.5,0.4867003905679046 180.0 0,0 4.6070726436,-9.6847925084" />
      <path d="M 5.5741771489,-7.3985832547 A 0.5,0.4867003905679046 180.0 0,0 4.6118380997,-7.2132721758" />
      <path d="M 4.6118380997,-7.2132721758 A 0.5,0.4867003905679046 180.0 0,0 5.6118380997,-7.2132721758" />
      <path d="M 5.6118380997,-7.2132721758 A 0.5,0.4867003905679046 180.0 0,0 5.5741771489,-7.3985832547" />
      <path d="M 6.5412816543,-5.112374001 A 0.5,0.4867003905679046 180.0 0,0 5.578942605,-4.927062922" />
      <path d="M 5.578942605,-4.927062922 A 0.5,0.4867003905679046 180.0 0,0 6.578942605,-4.927062922" />
      <path d="M 6.578942605,-4.927062922 A 0.5,0.4867003905679046 180.0 0,0 6.5412816543,-5.112374001" />
      <path d="M 7.5083861596,-2.8261647472 A 0.5,0.4867003905679046 180.0 0,0 6.5460471104,-2.6408536683" />
      <path d="M 6.5460471104,-2.6408536683 A 0.5,0.4867003905679046 180.0 0,0 7.5460471104,-2.6408536683" />
      <path d="M 7.5460471104,-2.6408536683 A 0.5,0.4867003905679046 180.0 0,0 7.5083861596,-2.8261647472" />
      <path d="M 8.475490665,-0.5399554935 A 0.5,0.4867003905679046 180.0 0,0 7.5131516157,-0.3546444146" />
      <path d="M 7.5131516157,-0.3546444146 A 0.5,0.4867003905679046 180.0 0,0 8.5131516157,-0.3546444146" />
      <path d="M 8.5131516157,-0.3546444146 A 0.5,0.4867003905679046 180.0 0,0 8.475490665,-0.5399554935" />
      <path d="M 9.4425951703,1.7462537602 A 0.5,0.4867003905679046 180.0 0,0 8.4802561211,1.9315648391" />
      <path d="M 8.4802561211,1.9315648391 A 0.5,0.4867003905679046 180.0 0,0 9.4802561211,1.9315648391" />
      <path d="M 9.4802561211,1.9315648391 A 0.5,0.4867003905679046 180.0 0,0 9.4425951703,1.7462537602" />
      <path d="M 10.4096996757,4.0324630139 A 0.5,0.4867003905679046 180.0 0,0 9.4473606264,4.2177740928" />
      <path d="M 9.4473606264,4.2177740928 A 0.5,0.4867003905679046 180.0 0,0 10.4473606264,4.2177740928" />
      <path d="M 10.4473606264,4.2177740928 A 0.5,0.4867003905679046 180.0 0,0 10.4096996757,4.0324630139" />
      <path d="M 11.376804181,6.3186722676 A 0.5,0.4867003905679046 180.0 0,0 10.4144651318,6.5039833466" />
      <path d="M 10.4144651318,6.5039833466 A 0.5,0.4867003905679046 180.0 0,0 11.4144651318,6.5039833466" />
      <path d="M 11.4144651318,6.5039833466 A 0.5,0.4867003905679046 180.0 0,0 11.376804181,6.3186722676" />
      <path d="M 12.3439086863,8.6048815214 A 0.5,0.4867003905679046 180.0 0,0 11.3815696371,8.7901926003" />
      <path d="M 11.3815696371,8.7901926003 A 0.5,0.4867003905679046 180.0 0,0 12.3815696371,8.7901926003" />
      <path d="M 12.3815696371,8.7901926003 A 0.5,0.4867003905679046 180.0 0,0 12.3439086863,8.6048815214" />
      <path d="M 13.3110131917,10.8910907751 A 0.5,0.4867003905679046 180.0 0,0 12.3486741425,11.076401854" />
      <path d="M 12.3486741425,11.076401854 A 0.5,0.4867003905679046 180.0 0,0 13.3486741425,11.076401854" />
      <path d="M 13.3486741425,11.076401854 A 0.5,0.4867003905679046 180.0 0,0 13.3110131917,10.8910907751" />
      <path d="M 14.278117697,13.1773000288 A 0.5,0.4867003905679046 180.0 0,0 13.3157786478,13.3626111077" />
      <path d="M 13.3157786478,13.3626111077 A 0.5,0.4867003905679046 180.0 0,0 14.3157786478,13.3626111077" />
      <path d="M 14.3157786478,13.3626111077 A 0.5,0.4867003905679046 180.0 0,0 14.278117697,13.1773000288" />
      <path d="M 15.5462049234,15.3428717701 A 0.8255,0.8035423448276104 180.0 0,0 13.9573831531,15.6488203614" />
      <path d="M 13.9573831531,15.6488203614 A 0.8255,0.8035423448276104 180.0 0,0 15.6083831531,15.6488203614" />
      <path d="M 15.6083831531,15.6488203614 A 0.8255,0.8035423448276104 180.0 0,0 15.5462049234,15.3428717701" />
      <path d="M -14.0195613829,-15.5881946037 A 0.8255,0.8035423448276104 -180.0 0,0 -15.6083831531,-15.2822460124" />
      <path d="M -15.6083831531,-15.2822460124 A 0.8255,0.8035423448276104 -180.0 0,0 -13.9573831531,-15.2822460124" />
      <path d="M -13.9573831531,-15.2822460124 A 0.8255,0.8035423448276104 -180.0 0,0 -14.0195613829,-15.5881946037" />
      <path d="M -13.3534395986,-13.1813478376 A 0.5,0.4867003905679046 180.0 0,0 -14.3157786478,-12.9960367587" />
      <path d="M -14.3157786478,-12.9960367587 A 0.5,0.4867003905679046 180.0 0,0 -13.3157786478,-12.9960367587" />
      <path d="M -13.3157786478,-12.9960367587 A 0.5,0.4867003905679046 180.0 0,0 -13.3534395986,-13.1813478376" />
      <path d="M -12.3863350932,-10.8951385839 A 0.5,0.4867003905679046 180.0 0,0 -13.3486741425,-10.709827505" />
      <path d="M -13.3486741425,-10.709827505 A 0.5,0.4867003905679046 180.0 0,0 -12.3486741425,-10.709827505" />
      <path d="M -12.3486741425,-10.709827505 A 0.5,0.4867003905679046 180.0 0,0 -12.3863350932,-10.8951385839" />
      <path d="M -11.4192305879,-8.6089293302 A 0.5,0.4867003905679046 180.0 0,0 -12.3815696371,-8.4236182513" />
      <path d="M -12.3815696371,-8.4236182513 A 0.5,0.4867003905679046 180.0 0,0 -11.3815696371,-8.4236182513" />
      <path d="M -11.3815696371,-8.4236182513 A 0.5,0.4867003905679046 180.0 0,0 -11.4192305879,-8.6089293302" />
      <path d="M -10.4521260825,-6.3227200765 A 0.5,0.4867003905679046 180.0 0,0 -11.4144651318,-6.1374089975" />
      <path d="M -11.4144651318,-6.1374089975 A 0.5,0.4867003905679046 180.0 0,0 -10.4144651318,-6.1374089975" />
      <path d="M -10.4144651318,-6.1374089975 A 0.5,0.4867003905679046 180.0 0,0 -10.4521260825,-6.3227200765" />
      <path d="M -9.4850215772,-4.0365108227 A 0.5,0.4867003905679046 180.0 0,0 -10.4473606264,-3.8511997438" />
      <path d="M -10.4473606264,-3.8511997438 A 0.5,0.4867003905679046 180.0 0,0 -9.4473606264,-3.8511997438" />
      <path d="M -9.4473606264,-3.8511997438 A 0.5,0.4867003905679046 180.0 0,0 -9.4850215772,-4.0365108227" />
      <path d="M -8.5179170718,-1.750301569 A 0.5,0.4867003905679046 180.0 0,0 -9.4802561211,-1.5649904901" />
      <path d="M -9.4802561211,-1.5649904901 A 0.5,0.4867003905679046 180.0 0,0 -8.4802561211,-1.5649904901" />
      <path d="M -8.4802561211,-1.5649904901 A 0.5,0.4867003905679046 180.0 0,0 -8.5179170718,-1.750301569" />
      <path d="M -7.5508125665,0.5359076847 A 0.5,0.4867003905679046 180.0 0,0 -8.5131516157,0.7212187636" />
      <path d="M -8.5131516157,0.7212187636 A 0.5,0.4867003905679046 180.0 0,0 -7.5131516157,0.7212187636" />
      <path d="M -7.5131516157,0.7212187636 A 0.5,0.4867003905679046 180.0 0,0 -7.5508125665,0.5359076847" />
      <path d="M -6.5837080611,2.8221169384 A 0.5,0.4867003905679046 180.0 0,0 -7.5460471104,3.0074280173" />
      <path d="M -7.5460471104,3.0074280173 A 0.5,0.4867003905679046 180.0 0,0 -6.5460471104,3.0074280173" />
      <path d="M -6.5460471104,3.0074280173 A 0.5,0.4867003905679046 180.0 0,0 -6.5837080611,2.8221169384" />
      <path d="M -5.6166035558,5.1083261921 A 0.5,0.4867003905679046 180.0 0,0 -6.578942605,5.2936372711" />
      <path d="M -6.578942605,5.2936372711 A 0.5,0.4867003905679046 180.0 0,0 -5.578942605,5.2936372711" />
      <path d="M -5.578942605,5.2936372711 A 0.5,0.4867003905679046 180.0 0,0 -5.6166035558,5.1083261921" />
      <path d="M -4.6494990504,7.3945354459 A 0.5,0.4867003905679046 180.0 0,0 -5.6118380997,7.5798465248" />
      <path d="M -5.6118380997,7.5798465248 A 0.5,0.4867003905679046 180.0 0,0 -4.6118380997,7.5798465248" />
      <path d="M -4.6118380997,7.5798465248 A 0.5,0.4867003905679046 180.0 0,0 -4.6494990504,7.3945354459" />
      <path d="M -3.6823945451,9.6807446996 A 0.5,0.4867003905679046 180.0 0,0 -4.6447335943,9.8660557785" />
      <path d="M -4.6447335943,9.8660557785 A 0.5,0.4867003905679046 180.0 0,0 -3.6447335943,9.8660557785" />
      <path d="M -3.6447335943,9.8660557785 A 0.5,0.4867003905679046 180.0 0,0 -3.6823945451,9.6807446996" />
      <path d="M -2.7152900398,11.9669539533 A 0.5,0.4867003905679046 180.0 0,0 -3.677629089,12.1522650322" />
      <path d="M -3.677629089,12.1522650322 A 0.5,0.4867003905679046 180.0 0,0 -2.677629089,12.1522650322" />
      <path d="M -2.677629089,12.1522650322 A 0.5,0.4867003905679046 180.0 0,0 -2.7152900398,11.9669539533" />
      <path d="M -1.7481855344,14.253163207 A 0.5,0.4867003905679046 180.0 0,0 -2.7105245836,14.4384742859" />
      <path d="M -2.7105245836,14.4384742859 A 0.5,0.4867003905679046 180.0 0,0 -1.7105245836,14.4384742859" />
      <path d="M -1.7105245836,14.4384742859 A 0.5,0.4867003905679046 180.0 0,0 -1.7481855344,14.253163207" />
      <path d="M -0.7810810291,16.5393724607 A 0.5,0.4867003905679046 180.0 0,0 -1.7434200783,16.7246835397" />
      <path d="M -1.7434200783,16.7246835397 A 0.5,0.4867003905679046 180.0 0,0 -0.7434200783,16.7246835397" />
      <path d="M -0.7434200783,16.7246835397 A 0.5,0.4867003905679046 180.0 0,0 -0.7810810291,16.5393724607" />
      <path d="M 0.1860234763,18.8255817145 A 0.5,0.4867003905679046 180.0 0,0 -0.776315573,19.0108927934" />
      <path d="M -0.776315573,19.0108927934 A 0.5,0.4867003905679046 180.0 0,0 0.223684427,19.0108927934" />
      <path d="M 0.223684427,19.0108927934 A 0.5,0.4867003905679046 180.0 0,0 0.1860234763,18.8255817145" />
      <path d="M 1.4541107027,20.9911534558 A 0.8255,0.8035423448276104 180.0 0,0 -0.1347110676,21.2971020471" />
      <path d="M -0.1347110676,21.2971020471 A 0.8255,0.8035423448276104 180.0 0,0 1.5162889324,21.2971020471" />
      <path d="M 1.5162889324,21.2971020471 A 0.8255,0.8035423448276104 180.0 0,0 1.4541107027,20.9911534558" />
    </g>
  </g>
</svg>