<?xml version='1.0' encoding='utf-8'?>
<svg width="411.7837589496mm" height="512.9999999998mm" viewBox="-47.1110507611 -53.7514950499 82.6729943617 102.993974837" version="1.1" xmlns="http://www.w3.org/2000/svg">
  <g transform="scale(1,-1)" stroke-linecap="round">
    <g fill="none" stroke="rgb(64,192,64)" stroke-width="0.2007679821384682" id="Visible">
      <line x1="20.7537629495" y1="-7.9939390323" x2="35.4615596095" y2="-14.049198738" />
      <line x1="35.4615596095" y1="-16.2857990475" x2="35.4615596095" y2="-14.049198738" />
      <line x1="-47.0106667701" y1="-43.0868360903" x2="-47.0106667701" y2="-40.8502357808" />
      <line x1="-47.0106667701" y1="-40.8502357808" x2="-32.3028701101" y2="-46.9054954865" />
      <line x1="-32.3028701101" y1="-49.142095796" x2="-32.3028701101" y2="-46.9054954865" />
      <line x1="-47.0106667701" y1="-43.0868360903" x2="-32.3028701101" y2="-49.142095796" />
      <line x1="20.7537629495" y1="-7.9939390323" x2="-1.8205801372" y2="-18.939346799" />
      <line x1="-9.7364802398" y1="-22.7774542528" x2="-47.0106667701" y2="-40.8502357808" />
      <line x1="35.4615596095" y1="-16.2857990475" x2="-32.3028701101" y2="-49.142095796" />
      <line x1="35.4615596095" y1="-14.049198738" x2="-32.3028701101" y2="-46.9054954865" />
      <line x1="-5.1970982222" y1="-10.2786735369" x2="-19.9048948822" y2="-4.2234138313" />
      <line x1="-5.1970982222" y1="-10.2786735369" x2="21.9086736656" y2="2.8638451625" />
      <line x1="21.9086736656" y1="47.5958513532" x2="7.2008770056" y2="53.6511110589" />
      <line x1="21.9086736656" y1="2.8638451625" x2="21.9086736656" y2="47.5958513532" />
      <line x1="-5.1970982222" y1="34.4533326538" x2="-19.9048948822" y2="40.5085923595" />
      <line x1="21.9086736656" y1="47.5958513532" x2="-5.1970982222" y2="34.4533326538" />
      <line x1="7.2008770056" y1="53.6511110589" x2="-19.9048948822" y2="40.5085923595" />
      <line x1="-5.1970982222" y1="32.2167323443" x2="-19.9048948822" y2="38.2719920499" />
      <line x1="-5.1970982222" y1="34.4533326538" x2="-5.1970982222" y2="32.2167323443" />
      <line x1="-19.9048948822" y1="40.5085923595" x2="-19.9048948822" y2="38.2719920499" />
      <line x1="-5.1970982222" y1="32.2167323443" x2="20.2145629226" y2="44.537843625" />
      <line x1="20.2145629226" y1="4.2790380533" x2="5.5067662626" y2="10.334297759" />
      <line x1="20.2145629226" y1="44.537843625" x2="20.2145629226" y2="4.2790380533" />
      <line x1="5.5067662626" y1="37.4066136629" x2="5.5067662626" y2="10.334297759" />
      <line x1="-5.1970982222" y1="-8.0420732274" x2="-19.9048948822" y2="-1.9868135217" />
      <line x1="20.2145629226" y1="4.2790380533" x2="-5.1970982222" y2="-8.0420732274" />
      <line x1="5.5067662626" y1="10.334297759" x2="-0.5756921016" y2="7.3851538231" />
      <line x1="-12.9389953793" y1="1.3906761456" x2="-19.9048948822" y2="-1.9868135217" />
      <line x1="-5.1970982222" y1="-8.0420732274" x2="-5.1970982222" y2="-10.2786735369" />
      <line x1="-19.9048948822" y1="-1.9868135217" x2="-19.9048948822" y2="-4.2234138313" />
      <path d="M -0.9945196658,3.6392759112 A 6.5,2.9041185950907775 1.777560941432499e-15 0,1 0.5674211865,4.9707621221" />
      <path d="M -3.8372667453,2.8351028335 A 6.5,2.9041185950907775 1.777560941432499e-15 0,1 -0.9945196658,3.6392759112" />
      <path d="M -10.179241512,3.4715760269 A 6.5,2.9041185950907775 1.777560941432499e-15 0,1 -3.8372667453,2.8351028335" />
      <path d="M -12.1165283471,6.243708509 A 6.5,2.9041185950907775 1.777560941432499e-15 0,1 -10.179241512,3.4715760269" />
      <path d="M -7.7118404153,8.3793677977 A 6.5,2.9041185950907775 1.777560941432499e-15 0,1 -12.1165283471,6.243708509" />
      <path d="M -1.3698656485,7.7428946042 A 6.5,2.9041185950907775 1.777560941432499e-15 0,1 -7.7118404153,8.3793677977" />
      <path d="M 0.5674211865,4.9707621221 A 6.5,2.9041185950907775 1.777560941432499e-15 0,1 -1.3698656485,7.7428946042" />
      <path d="M 0.5674211865,4.9707621221 C 0.3065326682,4.4507487156 0.0458021252,3.8220362584 -0.2550458457,2.987506678" />
      <path d="M -1.3698656485,7.7428946042 C -0.4944650924,7.3813963413 0.380405384,6.9111030423 1.3898882188,6.2593678585" />
      <path d="M 1.3898882188,6.2593678585 C 1.0890402479,5.8970922678 0.8283097049,5.4885909417 0.5674211865,4.9707621221" />
      <path d="M -7.7118404153,8.3793677977 C -6.5755513408,8.5367906478 -5.4399503214,8.5851042404 -4.1296195158,8.5317716422" />
      <path d="M -4.1296195158,8.5317716422 C -3.120136681,8.3522904482 -2.2452662046,8.1022082802 -1.3698656485,7.7428946042" />
      <path d="M -12.1165283471,6.243708509 C -11.8556398287,6.7615373286 -11.5949092857,7.1700386547 -11.2940613148,7.5323142454" />
      <path d="M -11.2940613148,7.5323142454 C -9.9837305092,7.9512356369 -8.8481294898,8.2197603606 -7.7118404153,8.3793677977" />
      <path d="M -12.9389953793,4.2604530649 C -12.6381474084,5.0949826453 -12.3774168654,5.7236951025 -12.1165283471,6.243708509" />
      <path d="M -10.179241512,3.4715760269 C -11.0546420682,3.8308897029 -11.9295125446,4.0809718709 -12.9389953793,4.2604530649" />
      <path d="M -7.4194876448,1.9880492812 C -8.4289704795,2.639784465 -9.3038409559,3.110077764 -10.179241512,3.4715760269" />
      <path d="M -3.8372667453,2.8351028335 C -4.9735558197,2.6754953964 -6.1091568392,2.4069706727 -7.4194876448,1.9880492812" />
      <path d="M -0.2550458457,2.987506678 C -1.5653766514,3.0408392762 -2.7009776708,2.9925256836 -3.8372667453,2.8351028335" />
      <line x1="1.3898882188" y1="2.1334920933" x2="-0.2550458457" y2="-1.1383690872" />
      <line x1="-0.2550458457" y1="2.987506678" x2="-0.2550458457" y2="-1.1383690872" />
      <line x1="1.3898882188" y1="2.1334920933" x2="1.3898882188" y2="6.2593678585" />
      <line x1="-12.9389953793" y1="0.1345772997" x2="-12.9389953793" y2="4.2604530649" />
      <line x1="-7.4194876448" y1="-2.137826484" x2="-12.9389953793" y2="0.1345772997" />
      <line x1="-7.4194876448" y1="-2.137826484" x2="-7.4194876448" y2="1.9880492812" />
      <line x1="-0.2550458457" y1="-1.1383690872" x2="-7.4194876448" y2="-2.137826484" />
      <path d="M -7.1346326255,-9.4809827426 Q -7.6477151908,-9.4220655597 -8.092626782,-9.3050379198" />
      <path d="M -8.092626782,-9.3050379198 C -8.8293418585,-9.1124040564 -9.3788085166,-8.8046676982 -9.6227565252,-8.4566120132" />
      <path d="M -1.7754837858,-8.6196677761 C -1.7932128025,-9.0936341294 -2.176865171,-9.5618792435 -2.8329942483,-9.9208603667" />
      <path d="M -7.6709564371,-9.260176048 C -8.4359842922,-9.1157508454 -9.0592759585,-8.8564083125 -9.4163927087,-8.5415728358" />
      <path d="M -1.7934736437,-8.628390348 C -1.8753807131,-9.0508913577 -2.2463636553,-9.4595087894 -2.8329942482,-9.781026077" />
      <path d="M -2.8329942483,-9.9208603667 C -3.1761673163,-10.1099553106 -3.5909814076,-10.2694167127 -4.0481760246,-10.3895717876" />
      <path d="M -4.0481760246,-10.3895717876 C -4.5888020357,-10.5320463059 -5.1883280281,-10.6190260664 -5.7878671475,-10.6445959022 C -6.6080288423,-10.68058317 -7.425147665,-10.5998197812 -8.0925836226,-10.4233490545" />
      <path d="M -8.0925836226,-10.4233490545 C -8.3510040137,-10.3552215695 -8.584349072,-10.2747381793 -8.7926187975,-10.181898884 C -9.4218861104,-9.9031561418 -9.7775168125,-9.5208412836 -9.774553579,-9.1364417766" />
      <path d="M -1.7745535833,-9.6955890869 C -1.7710991924,-10.1838220917 -2.1570050941,-10.6695164202 -2.8329942483,-11.0391601458" />
      <path d="M -2.8329942482,-9.781026077 C -3.5010809625,-10.1511778087 -4.4492185081,-10.4027125193 -5.4355855417,-10.4826542032 C -6.1150355275,-10.5391641383 -6.8087634206,-10.5160300336 -7.4293133885,-10.4199956754 C -7.9248793296,-10.3437572708 -8.3734919596,-10.2216604733 -8.7386563083,-10.0656062732 C -9.4009399291,-9.7849352555 -9.7778586934,-9.3919621463 -9.7745535522,-8.9966057489" />
      <path d="M -9.7745535522,-8.9966057489 Q -9.7739516724,-8.7453986264 -9.5845099107,-8.5073745157" />
      <path d="M -1.9002498904,-9.0665258036 Q -1.7748143861,-9.3076080455 -1.774553577,-9.555759028" />
      <path d="M -1.774553577,-9.555759028 C -1.7710994055,-10.0439861102 -2.1570092445,-10.5296711616 -2.8329942482,-10.8993286293" />
      <path d="M -2.8329942483,-11.0391601458 C -3.1761805474,-11.2282623998 -3.5910134625,-11.3877287843 -4.048228955,-11.5078854919" />
      <path d="M -4.048228955,-11.5078854919 C -4.5888411874,-11.6503518108 -5.1883477179,-11.7373266762 -5.7878673212,-11.7628956888 C -6.6080112423,-11.7988821163 -7.4251125535,-11.7181231111 -8.0925404249,-11.541660199" />
      <path d="M -8.0925404249,-11.541660199 C -8.3509779283,-11.4735303561 -8.5843374602,-11.3930431443 -8.7926190204,-11.3001985638 C -9.421886195,-11.0214558296 -9.7775168096,-10.639141022 -9.774553579,-10.2547415558" />
      <path d="M -1.774553583,-10.8138888659 C -1.7710995515,-11.3021217045 -2.1570036046,-11.7878151036 -2.8329942483,-12.1574599249" />
      <path d="M -2.8329942482,-10.8993286293 C -3.5010786492,-11.2694790556 -4.449211872,-11.5210133452 -5.4355752412,-11.600955904 C -6.1150143394,-11.6574657147 -6.8087313843,-11.6343340804 -7.4292745737,-11.5383042106 C -7.9246732851,-11.4620941092 -8.3731526562,-11.3400571925 -8.7382529239,-11.1840809616 C -9.4007808349,-10.9033961781 -9.7778593467,-10.5103519648 -9.7745535564,-10.1149083491" />
      <path d="M -9.7745535564,-10.1149083491 Q -9.7739506847,-9.8636979066 -9.5845087951,-9.6256756906" />
      <path d="M -1.9002506127,-10.1848269695 Q -1.7748150717,-10.4259073834 -1.774553576,-10.6740615829" />
      <path d="M -1.774553576,-10.6740615829 C -1.7710988358,-11.1622889125 -2.1570120092,-11.6479758981 -2.8329942482,-12.0176311816" />
      <path d="M -2.8329942483,-12.1574599249 C -3.1761937617,-12.3465694797 -3.5910454769,-12.5060408403 -4.0482818185,-12.6261991781" />
      <path d="M -4.0482818185,-12.6261991781 C -4.5888803813,-12.7686573326 -5.1883675865,-12.8556273143 -5.7878678003,-12.8811954886 C -6.6079938299,-12.9171810423 -7.4250774939,-12.8364264218 -8.0924971888,-12.6599713531" />
      <path d="M -8.0924971888,-12.6599713531 C -8.3509521328,-12.5918390676 -8.5843263998,-12.5113479201 -8.7926199899,-12.4184979107 C -9.4218867343,-12.1397551361 -9.7775169833,-11.7574404206 -9.774553579,-11.373041025" />
      <path d="M -1.7745535828,-11.9321886006 C -1.7710997013,-12.4204214194 -2.1570030046,-12.90611446 -2.8329942483,-13.2757597041" />
      <path d="M -2.8329942482,-12.0176311816 C -3.5010768236,-12.3877805778 -4.4492066351,-12.6393145351 -5.4355671125,-12.7192577844 C -6.1149978438,-12.7757675159 -6.8087065618,-12.7526377962 -7.4292445594,-12.6566113892 C -7.9245141436,-12.5804231442 -8.3728906102,-12.4584324591 -8.7379413671,-12.3025164264 C -9.4006615449,-12.0218234797 -9.7778636224,-11.628709857 -9.7745535539,-11.233210865" />
      <path d="M -9.7745535539,-11.233210865 Q -9.7739518034,-10.9820026002 -9.5845076944,-10.7439768468" />
      <path d="M -1.9002513348,-11.3031281347 Q -1.7748149124,-11.5442097416 -1.7745535768,-11.7923641194" />
      <path d="M -1.7745535768,-11.7923641194 C -1.7710983682,-12.2805913406 -2.1570129532,-12.766279054 -2.8329942482,-13.1359337339" />
      <path d="M -2.8329942483,-13.2757597041 C -3.1762069937,-13.4648765694 -3.5910775345,-13.6243529125 -4.0483347533,-13.7445128827" />
      <path d="M -4.0483347533,-13.7445128827 C -4.5889195107,-13.886962831 -5.1883872221,-13.9739279161 -5.7878678906,-13.9994952716 C -6.6079761731,-14.0354799938 -7.4250423573,-13.9547297578 -8.0924539871,-13.7782824979" />
      <path d="M -8.0924539871,-13.7782824979 C -8.3509259687,-13.710147875 -8.5843146499,-13.6296529329 -8.7926200305,-13.5367976717 C -9.4218867499,-13.2580548987 -9.777516983,-12.8757401917 -9.774553579,-12.4913408041" />
      <path d="M -1.7745535829,-13.0504883791 C -1.7710995964,-13.538721208 -2.1570033328,-14.0244144724 -2.8329942483,-14.3940594832" />
      <path d="M -2.8329942482,-13.1359337339 C -3.5010736877,-13.5060813606 -4.4491976394,-13.7576147472 -5.4355531493,-13.8375591826 C -6.1149686581,-13.8940687059 -6.8086621887,-13.870942407 -7.4291906729,-13.7749222471 C -7.9242242317,-13.6987738812 -8.3724125431,-13.5768676063 -8.7373726422,-13.4210615157 C -9.4004395923,-13.1403508282 -9.7778670428,-12.7471274858 -9.7745535522,-12.3515134148" />
      <path d="M -9.7745535522,-12.3515134148 Q -9.7739516536,-12.1003040321 -9.5845065859,-11.8622780129" />
      <path d="M -1.9002520575,-12.4214293008 Q -1.7748148104,-12.6625120287 -1.7745535766,-12.9106666719" />
      <path d="M -1.7745535766,-12.9106666719 C -1.7710991698,-13.3988938676 -2.1570103633,-13.8845797017 -2.8329942482,-14.2542362862" />
      <path d="M -2.8329942483,-14.3940594832 C -3.1762202261,-14.5831836594 -3.5911095934,-14.7426649851 -4.0483876903,-14.8628265874" />
      <path d="M -4.0483876903,-14.8628265874 C -4.5889587338,-15.0052683539 -5.1884070633,-15.0922285475 -5.7878682883,-15.1177950679 C -6.6079587201,-15.1537789257 -7.4250073025,-15.0730330714 -8.0924107833,-14.8965936429" />
      <path d="M -8.0924107833,-14.8965936429 C -8.3509001122,-14.8284566008 -8.5843034536,-14.7479577547 -8.7926208075,-14.6550971045 C -9.4218870445,-14.3763543586 -9.7775169723,-13.9940398316 -9.774553579,-13.6096405829" />
      <path d="M -1.7745535831,-14.1687881575 C -1.7710991608,-14.6570211347 -2.1570049561,-15.142715421 -2.8329942483,-15.5123592624" />
      <path d="M -2.8329942482,-14.2542362862 C -3.5010726116,-14.6243833057 -4.4491945526,-14.8759164965 -5.4355483579,-14.9558613389 C -6.1149594225,-15.0123708568 -6.8086485516,-14.9892456105 -7.4291743163,-14.8932273204 C -7.9241382856,-14.8170907447 -8.3722711349,-14.6952093879 -8.7372045259,-14.5394357414 C -9.400373621,-14.2587195105 -9.7778676998,-13.8654653033 -9.7745535552,-13.469815991" />
      <path d="M -9.7745535552,-13.469815991 Q -9.7739518746,-13.2186062729 -9.5845054795,-12.9805791762" />
      <path d="M -1.9002527805,-13.5397304672 Q -1.7748150208,-13.7808130476 -1.7745535758,-14.0289692395" />
      <path d="M -1.7745535758,-14.0289692395 C -1.7710983214,-14.5171966018 -2.1570137976,-15.0028849018 -2.8329942482,-15.3725388385" />
      <path d="M -2.8329942483,-15.5123592624 C -3.176233459,-15.7014907497 -3.5911416536,-15.8609770581 -4.0484406294,-15.9811402922" />
      <path d="M -4.0484406294,-15.9811402922 C -4.5889979301,-16.1235738694 -5.1884268427,-16.2105291699 -5.7878685924,-16.2360948601 C -6.6079412043,-16.2720778635 -7.4249722211,-16.1913363919 -8.0923675775,-16.014904788" />
      <path d="M -8.0923675775,-16.014904788 C -8.3508741661,-15.9467653504 -8.5842920981,-15.8662626315 -8.7926213734,-15.7733966313 C -9.4218872589,-15.4946539051 -9.7775169643,-15.11233951 -9.774553579,-14.7279403617" />
      <path d="M -1.7745535838,-15.2870879396 C -1.7710994664,-15.7753207611 -2.1570035116,-16.2610140834 -2.8329942483,-16.6306590415" />
      <path d="M -2.8329942482,-15.3725388385 C -3.5010695319,-15.7426841203 -4.4491857178,-15.9942167504 -5.4355346445,-16.0741627577 C -6.1149308018,-16.1306720748 -6.8086050598,-16.1075501813 -7.4291215109,-16.0115380111 C -7.9238517768,-15.9354408795 -8.3717982639,-15.8136430275 -8.7366417161,-15.6579781673 C -9.400154433,-15.3772447845 -9.7778715475,-14.9838801418 -9.7745535538,-14.5881185154" />
      <path d="M -9.7745535538,-14.5881185154 Q -9.7739517696,-14.336907884 -9.5845043705,-14.0988803429" />
      <path d="M -1.9002535029,-14.6580316323 Q -1.7748144932,-14.8991168683 -1.774553577,-15.147271777" />
      <path d="M -1.774553577,-15.147271777 C -1.7710994258,-15.6354988571 -2.1570091416,-16.1211838486 -2.8329942482,-16.4908413909" />
      <path d="M -2.8329942483,-16.6306590415 C -3.1762466924,-16.8197978402 -3.5911737152,-16.9792891314 -4.0484935708,-17.0994539972" />
      <path d="M -4.0484935708,-17.0994539972 C -4.5890371171,-17.2418793822 -5.1884465991,-17.328829789 -5.7878688608,-17.3543946508 C -6.607923664,-17.3903768036 -7.4249371287,-17.309639715 -8.0923243697,-17.1332159333" />
      <path d="M -8.0923243697,-17.1332159333 C -8.3508481683,-17.0650741136 -8.5842806513,-16.9845675398 -8.7926218187,-16.8916962119 C -9.4218874277,-16.6129535013 -9.7775169581,-16.2306392095 -9.774553579,-15.8462401406" />
      <path d="M -1.774553583,-16.4053877176 C -1.7710997517,-16.8936204967 -2.1570027269,-17.3793133599 -2.8329942483,-17.7489588207" />
      <path d="M -2.8329942482,-16.4908413909 C -3.501067181,-16.8609853461 -4.4491789739,-17.1125175484 -5.4355241766,-17.1924644448 C -6.1149092297,-17.2489736319 -6.8085724216,-17.2258542549 -7.4290819556,-17.1298466595 C -7.9236368807,-17.0537791151 -8.371443525,-16.9320438929 -8.7362194303,-16.77646063 C -9.3999894949,-16.4957141225 -9.7778740396,-16.1022683218 -9.7745535548,-15.7064210962" />
      <path d="M -9.7745535548,-15.7064210962 Q -9.7739518091,-15.4552097473 -9.5845032629,-15.2171815078" />
      <path d="M -1.9002542259,-15.7763327976 Q -1.7748145134,-16.0174186376 -1.7745535769,-16.2655743424" />
      <path d="M -1.7745535769,-16.2655743424 C -1.7710995188,-16.7538014277 -2.1570089199,-17.2394862453 -2.8329942483,-17.6091439433" />
      <path d="M -2.8329942483,-17.7489588207 C -3.1762599262,-17.9381049309 -3.5912057782,-18.097601205 -4.0485465145,-18.2177677024" />
      <path d="M -4.0485465145,-18.2177677024 C -4.5890761848,-18.360184863 -5.1884660881,-18.4471303694 -5.7878687274,-18.4726944243 C -6.6079058556,-18.5086757695 -7.4249019261,-18.4279430673 -8.0922811598,-18.2515270788" />
      <path d="M -8.0922811598,-18.2515270788 C -8.350821738,-18.1833829914 -8.5842684297,-18.1028727155 -8.792621235,-18.0099962513 C -9.421887207,-17.7312535207 -9.7775169667,-17.3489390912 -9.774553579,-16.9645399201" />
      <path d="M -1.7745535827,-17.5236874961 C -1.7710995375,-18.0119203501 -2.1570035985,-18.4976137925 -2.8329942483,-18.8672585999" />
      <path d="M -2.8329942483,-17.6091439433 C -3.5010651839,-17.9792867716 -4.4491732451,-18.2308186104 -5.4355152842,-18.3107662622 C -6.1148910553,-18.3672753516 -6.8085450037,-18.3441580887 -7.4290487669,-18.2481543266 C -7.9234563395,-18.1721116415 -8.371145449,-18.0504290369 -8.7358645428,-17.8949143314 C -9.3998543896,-17.6141586917 -9.7778798419,-17.2206317563 -9.7745535505,-16.8247235284" />
      <path d="M -9.7745535505,-16.8247235284 Q -9.7739513594,-16.57351116 -9.5845021467,-16.3354826834" />
      <path d="M -1.9002549483,-16.894633964 Q -1.7748144724,-17.1357206076 -1.7745535771,-17.3838768944" />
      <path d="M -1.7745535771,-17.3838768944 C -1.7710993557,-17.872103982 -2.1570094129,-18.357789151 -2.8329942483,-18.7274464957" />
      <path d="M -2.8329942483,-18.8672585999 C -3.1762731605,-19.0564120219 -3.5912378424,-19.215913279 -4.0485994604,-19.3360814076" />
      <path d="M -4.0485994604,-19.3360814076 C -4.5891154547,-19.4784903971 -5.1884860236,-19.5654310142 -5.7878692623,-19.5909942264 C -6.6078884914,-19.6269746924 -7.4248669032,-19.5462463711 -8.092237948,-19.3698382245" />
      <path d="M -8.092237948,-19.3698382245 C -8.3507960327,-19.301691677 -8.5842575113,-19.2211774417 -8.7926223835,-19.1282955184 C -9.4218876418,-18.8495528275 -9.7775169502,-18.467238667 -9.774553579,-18.0828396986" />
      <path d="M -1.7745535838,-18.6419872778 C -1.7710994484,-19.1302201023 -2.1570035651,-19.6159134559 -2.8329942483,-19.985558379" />
      <path d="M -2.8329942483,-18.7274464957 C -3.501065118,-19.0975892869 -4.4491730564,-19.3491211138 -5.4355149914,-19.4290687904 C -6.1148915967,-19.4855779731 -6.8085464254,-19.4624606027 -7.4290507961,-19.3664565663 C -7.9234711641,-19.2904117824 -8.3711705142,-19.1687246738 -8.7358946157,-19.0132040772 C -9.3998628795,-18.7324476985 -9.7778762238,-18.3389383936 -9.7745535533,-17.9430261948" />
      <path d="M -9.7745535533,-17.9430261948 Q -9.7739517065,-17.6918131562 -9.5845010456,-17.4537838402" />
      <path d="M -1.9002556704,-18.0129351292 Q -1.7748146621,-18.2540217657 -1.7745535771,-18.5021794466" />
      <path d="M -1.7745535771,-18.5021794466 C -1.7710992919,-18.9904065518 -2.1570096453,-19.476091872 -2.8329942483,-19.8457490482" />
      <path d="M -2.8329942483,-19.985558379 C -3.1762863952,-20.1747191132 -3.5912699081,-20.3342253534 -4.0486524085,-20.4543951131" />
      <path d="M -4.0486524085,-20.4543951131 C -4.5891544099,-20.5967958476 -5.1885052583,-20.6837315579 -5.7878687455,-20.7092939834 C -6.6078704266,-20.7452736828 -7.4248315941,-20.6645497512 -8.092194734,-20.4881493703" />
      <path d="M -8.092194734,-20.4881493703 C -8.3507691467,-20.4200006754 -8.5842444747,-20.3394828987 -8.7926207181,-20.2465960401 C -9.4218870118,-19.9678532921 -9.7775169747,-19.5855387392 -9.774553579,-19.2011394787" />
      <path d="M -1.7745535832,-19.7602870542 C -1.7710995335,-20.2485198919 -2.1570034761,-20.734213226 -2.8329942483,-21.1038581582" />
      <path d="M -2.8329942483,-19.8457490482 C -3.501061322,-20.2158896973 -4.4491621669,-20.4674208333 -5.4354980885,-20.5473699457 C -6.1148560129,-20.6038788547 -6.8084921931,-20.5807656641 -7.4289848687,-20.4847692784 C -7.9231069291,-20.4087747289 -8.3705682538,-20.2871940171 -8.7351771255,-20.13181209 C -9.3995832407,-19.8510339703 -9.7778811252,-19.4573842558 -9.7745535543,-19.0613287251" />
      <path d="M -9.7745535543,-19.0613287251 Q -9.7739517829,-18.8101151839 -9.5844999374,-18.5720850059" />
      <path d="M -1.9002563939,-19.1312362948 Q -1.7748145167,-19.3723241212 -1.7745535771,-19.6204819867" />
      <path d="M -1.7745535771,-19.6204819867 C -1.7710992232,-20.1087091019 -2.1570098458,-20.5943945718 -2.8329942483,-20.9640516007" />
      <path d="M -2.8329942483,-21.1038581582 C -3.1762996476,-21.2930262143 -3.5913020168,-21.452537444 -4.0487054278,-21.5727088368" />
      <path d="M -4.0487054278,-21.5727088368 C -4.5891938187,-21.7151014119 -5.1885254098,-21.8020322309 -5.787869564,-21.8275937978 C -6.6078532646,-21.8635725882 -7.4247966748,-21.7828530315 -8.0921515543,-21.6064605068" />
      <path d="M -8.0921515543,-21.6064605068 C -8.3507437927,-21.5383092662 -8.5842341605,-21.4577874154 -8.7926226578,-21.3648949545 C -9.4218875734,-21.0861523483 -9.7775167585,-20.7038383828 -9.774553579,-20.3194395682" />
      <path d="M -1.7745535836,-20.8785868785 C -1.7710992891,-21.3668197844 -2.1570044312,-21.8525136716 -2.8329942483,-22.2221579374" />
      <path d="M -2.8329942483,-20.9640516007 C -3.5010634941,-21.3341934754 -4.4491683982,-21.5857250069 -5.4355077609,-21.6656732977 C -6.1148782206,-21.7221825196 -6.80852699,-21.6990666503 -7.4290276489,-21.6030652384 C -7.9233495807,-21.527037129 -8.3709704472,-21.4053852396 -8.7356566612,-21.249910507 C -9.3997706797,-20.9691473566 -9.7778783777,-20.575589161 -9.7745535515,-20.1796312845" />
      <path d="M -9.7745535515,-20.1796312845 Q -9.773951546,-19.9284165419 -9.584498827,-19.6903861741" />
      <path d="M -1.9002571166,-20.2495374615 Q -1.7748147672,-20.4906249843 -1.7745535768,-20.7387845387" />
      <path d="M -1.7745535768,-20.7387845387 C -1.771098486,-21.2270117755 -2.1570126207,-21.7126992303 -2.8329942483,-22.0823541532" />
      <path d="M -2.8329942483,-22.2221579374 C -3.1763128661,-22.4113332966 -3.5913340435,-22.5708495031 -4.0487583116,-22.6910225244" />
      <path d="M -4.0487583116,-22.6910225244 C -4.5892327614,-22.8334068645 -5.1885446993,-22.920332785 -5.7878691656,-22.9458935598 C -6.6078352623,-22.9818715702 -7.4247613657,-22.9011564061 -8.0921083,-22.7247716625" />
      <path d="M -8.0921083,-22.7247716625 C -8.3507170349,-22.6566182323 -8.5842213869,-22.5760927828 -8.7926213562,-22.483195314 C -9.4218872538,-22.2044525883 -9.7775169659,-21.822138183 -9.774553579,-21.4377390367" />
      <path d="M -1.7745535831,-21.9968866114 C -1.7710992004,-22.4851196109 -2.1570049452,-22.9708138909 -2.8329942483,-23.3404577165" />
      <path d="M -2.8329942483,-22.0823541532 C -3.5010579802,-22.4524929167 -4.4491525809,-22.7040234444 -5.435483209,-22.7839738207 C -6.1148260117,-22.8404826009 -6.8084471506,-22.8173728839 -7.4289304562,-22.721382768 C -7.9228082346,-22.6454293811 -8.3700746257,-22.5239357984 -8.7345890562,-22.3686674257 C -9.3993536443,-22.0878713041 -9.7778847314,-21.6941080599 -9.7745535517,-21.2979338292" />
      <path d="M -9.7745535517,-21.2979338292 Q -9.773951553,-21.0467182623 -9.5844977199,-20.8086873384" />
      <path d="M -1.9002578389,-21.3678386261 Q -1.7748146552,-21.6089273312 -1.774553577,-21.8570870918" />
      <path d="M -1.774553577,-21.8570870918 C -1.7710994725,-22.345314158 -2.1570089687,-22.8309990371 -2.8329942483,-23.2006567057" />
      <path d="M -2.8329942483,-23.3404577165 C -3.1763261023,-23.5296403887 -3.5913661132,-23.6891615784 -4.0488112665,-23.8093362303" />
      <path d="M -4.0488112665,-23.8093362303 C -4.5892720444,-23.9517124008 -5.1885646544,-24.0386334323 -5.7878697257,-24.0641933631 C -6.6078179122,-24.1001704915 -7.4247263442,-24.0194597081 -8.09206508,-23.8430828089" />
      <path d="M -8.09206508,-23.8430828089 C -8.3506913554,-23.774926911 -8.584210521,-23.694397491 -8.792622577,-23.6014945488 C -9.4218877159,-23.3227518653 -9.7775169482,-22.9404377464 -9.774553579,-22.5560388152" />
      <path d="M -1.7745535823,-23.115186391 C -1.7710992468,-23.6034193549 -2.1570047913,-24.0891135796 -2.8329942483,-24.4587574957" />
      <path d="M -2.8329942483,-23.2006567057 C -3.5010592208,-23.5707961692 -4.44915614,-23.8223269229 -5.4354887335,-23.9022768299 C -6.1148391835,-23.9587858301 -6.8084680197,-23.9356745074 -7.4289562264,-23.8396813495 C -7.9229569264,-23.763707363 -8.3703214751,-23.6421700628 -8.7348835785,-23.4868446701 C -9.3994691498,-23.2060579426 -9.7778834534,-22.8123494035 -9.7745535548,-22.4162363865" />
      <path d="M -9.7745535548,-22.4162363865 Q -9.7739518157,-22.1650207745 -9.5844966118,-21.9269885039" />
      <path d="M -1.9002585618,-22.4861397932 Q -1.7748147437,-22.7272288299 -1.7745535766,-22.975389644" />
      <path d="M -1.7745535766,-22.975389644 C -1.7710992772,-23.4636168143 -2.157009968,-23.9493023811 -2.8329942483,-24.3189592583" />
      <path d="M -2.8329942483,-24.4587574957 C -3.1763393561,-24.6479474905 -3.5913982259,-24.8074736701 -4.0488642923,-24.9276499544" />
      <path d="M -4.0488642923,-24.9276499544 C -4.5893112477,-25.0700179098 -5.1885843429,-25.1569340385 -5.7878698471,-25.1824931475 C -6.6078002843,-25.2184694416 -7.4246912321,-25.137763039 -8.0920218942,-24.9613939459" />
      <path d="M -8.0920218942,-24.9613939459 C -8.3506652297,-24.8932357061 -8.5841988264,-24.8127024842 -8.7926226841,-24.7197942803 C -9.4218875843,-24.4410516757 -9.7775167591,-24.0587377126 -9.774553579,-23.6743389057" />
      <path d="M -1.7745535832,-24.2334862161 C -1.7710992935,-24.7217191887 -2.1570047255,-25.2074132841 -2.8329942483,-25.5770572749" />
      <path d="M -2.8329942483,-24.3189592583 C -3.5010558299,-24.6890968084 -4.4491464127,-24.9406269448 -5.4354736346,-25.0205781343 C -6.1148075152,-25.0770869 -6.8084198152,-25.0539792925 -7.4288976568,-24.9579929271 C -7.9226300363,-24.8820640678 -8.3697804032,-24.7606223633 -8.7342386068,-24.6054215955 C -9.3992173371,-24.3246151399 -9.7778874214,-23.9307821222 -9.7745535534,-23.5345389373" />
      <path d="M -9.7745535534,-23.5345389373 Q -9.7739516846,-23.283322256 -9.5844955033,-23.04528967" />
      <path d="M -1.9002592842,-23.6044409599 Q -1.7748149059,-23.8455300399 -1.7745535764,-24.0936921963" />
      <path d="M -1.7745535764,-24.0936921963 C -1.7710987628,-24.5819194749 -2.157011942,-25.0676064266 -2.8329942483,-25.4372618108" />
      <path d="M -1.9065966622,-25.7132455769 A 4.0,1.7871499046712478 1.777560941432499e-15 0,1 -1.7745535803,-25.2578489561" />
      <path d="M -1.7745535803,-25.2578489561 A 4.0,1.7871499046712478 1.777560941432499e-15 0,1 -1.7748522663,-25.2360093218" />
      <path d="M -2.8329942483,-25.5770572749 C -3.1763525679,-25.7662545692 -3.591430237,-25.9257857227 -4.0489171505,-26.045963634" />
      <path d="M -4.0489171505,-26.045963634 C -4.5893503756,-26.1883234134 -5.1886040773,-26.2752346577 -5.7878701304,-26.3007929389 C -6.607782745,-26.3367683804 -7.4246561259,-26.2560663619 -8.0919786612,-26.0797050949" />
      <path d="M -8.0919786612,-26.0797050949 C -8.3506392182,-26.0115444731 -8.5841873748,-25.9310073948 -8.7926231312,-25.8380938601 C -9.4218878046,-25.5593512487 -9.7775168083,-25.1770373513 -9.774553579,-24.7926385924" />
      <path d="M -2.8329942483,-25.4372618108 C -3.5010543902,-25.8073985486 -4.4491422829,-26.058928423 -5.4354672243,-26.138880157 C -6.1147947645,-26.1953888819 -6.8084007658,-26.1722827437 -7.4288746924,-26.0762990181 C -7.9225034045,-26.0003876165 -8.3695710245,-25.8789828625 -8.7339890805,-25.7238302593 C -9.3991204749,-25.4430165155 -9.7778895309,-25.049133298 -9.7745535539,-24.6528413322" />
      <path d="M -9.7745535539,-24.6528413322 Q -9.773951652,-24.4016241281 -9.5844943944,-24.1635908365" />
      <path d="M -1.9002600073,-24.7227421247 Q -1.7748117419,-24.9638446159 -1.7745535801,-25.211994756" />
      <path d="M -1.7745535801,-25.211994756 Q -1.7748411922,-25.466425006 -1.9065966622,-25.7132455769" />
      <path d="M -2.8781569375,-26.5052500035 Q -2.5700270254,-26.3524604555 -2.3380621658,-26.1728250973" />
      <path d="M -2.3380621658,-26.1728250973 Q -2.0585228825,-25.9558991218 -1.9065966622,-25.7132455769" />
      <path d="M -2.7375762424,-26.4824838192 Q -2.9750044542,-26.666264018 -3.2734250669,-26.8233808219" />
      <path d="M -3.3940553436,-26.9204698756 Q -3.1576363751,-26.8073880811 -2.9731279835,-26.6650571948" />
      <path d="M -2.9731279835,-26.6650571948 Q -2.9214343318,-26.6249953517 -2.8750097238,-26.583130757" />
      <path d="M -2.8781569375,-26.5052500035 C -3.4796992254,-26.8048017247 -4.288759887,-27.0114542927 -5.1400968603,-27.0863510223 C -5.9519718616,-27.1595501105 -6.7969327263,-27.112410738 -7.5090554585,-26.9575226963 C -8.1308683727,-26.823652954 -8.6493181258,-26.609230125 -8.9820331808,-26.3503294585" />
      <path d="M -8.9820331808,-26.3503294585 C -9.3247125081,-26.0859065806 -9.4705930396,-25.7759538265 -9.392706561,-25.4762631728" />
      <path d="M -3.4213061147,-26.942402608 A 3.2,1.4297199237369984 1.777560941432499e-15 0,1 -3.0021733183,-26.6875698944" />
      <path d="M -3.0021733183,-26.6875698944 A 3.2,1.4297199237369984 1.777560941432499e-15 0,1 -2.9878412606,-26.6763443269" />
      <path d="M -8.5469338423,-26.6875698944 A 3.2,1.4297199237369984 1.777560941432499e-15 0,1 -3.4213061147,-26.942402608" />
      <path d="M -3.3940553436,-26.9204698756 C -3.5030604078,-26.9727882019 -3.6206155397,-27.0200551212 -3.728080632,-27.0559527486 C -3.7834740613,-27.0744989507 -3.839434948,-27.090814674 -3.8637701543,-27.0948878003 C -3.8921624205,-27.0999176156 -3.850512226,-27.0815486172 -3.7902064885,-27.0576659286" />
      <path d="M -3.7902064885,-27.0576659286 L -3.7336712787,-27.035049624" />
      <path d="M -3.2734250669,-26.8233808219 Q -3.4907029881,-26.9377200285 -3.7336712787,-27.035049624" />
      <path d="M -2.8329942482,-9.781026077 L -3.2386698331,-9.3291089264" />
      <path d="M -7.0030240663,-9.5351665217 Q -7.4061252445,-9.4865109467 -7.7547624669,-9.3941922729" />
      <path d="M -6.2064274814,-9.8631285757 C -6.8639046918,-9.8606683625 -7.4931438092,-9.7674277616 -7.9870244888,-9.605325262 C -8.4825284006,-9.4440359525 -8.8402965352,-9.214833713 -8.9994113586,-8.9627842773" />
      <path d="M -2.7073327448,-9.8484711363 Q -2.9338064665,-10.1211510911 -3.3305065498,-10.3451038521" />
      <path d="M -3.3305065498,-10.3451038521 C -3.3703369894,-10.3012918369 -3.3964669398,-10.2365270695 -3.3968346293,-10.1807041147" />
      <path d="M -2.8329942482,-10.8993286293 L -3.3305065498,-10.3451038521" />
      <path d="M -4.384039859,-10.4781902823 C -5.460887762,-10.768935237 -6.8051475265,-10.7701610987 -7.7547267449,-10.5124986153" />
      <path d="M -3.3305065498,-10.3451038521 C -3.7340857483,-10.5732446624 -4.2583615609,-10.7510928473 -4.8304489324,-10.8583780875 C -5.4020746251,-10.9663513263 -6.0196778885,-11.0035121758 -6.5973312674,-10.9691255174 C -7.1753837657,-10.9354362855 -7.7116659136,-10.8304083071 -8.1315736849,-10.6730985773 C -8.552623224,-10.5162960578 -8.8559693131,-10.3078095619 -8.9994045223,-10.0810877045" />
      <path d="M -2.7073425949,-10.9667768554 Q -2.933815441,-11.2394518118 -3.3305090172,-11.4634008976" />
      <path d="M -3.3305090172,-11.4634008976 C -3.3703384922,-11.4195896916 -3.3964680891,-11.3548267532 -3.3968366545,-11.2990046747" />
      <path d="M -2.8329942482,-12.0176311816 L -3.3305090172,-11.4634008976" />
      <path d="M -4.3840852514,-11.5964991843 C -5.4609119668,-11.8872289519 -6.8051276376,-11.8884546581 -7.7546910213,-11.6308049579" />
      <path d="M -3.3305090172,-11.4634008976 C -3.7340869732,-11.6915410176 -4.2583608924,-11.8693887831 -4.8304462842,-11.9766740075 C -5.4020699999,-12.0846472238 -6.0196712218,-12.1218084562 -6.5973231332,-12.0874225265 C -7.1753741568,-12.053734017 -7.7116554242,-11.9487071024 -8.1315633399,-11.7913985416 C -8.5526130087,-11.634597188 -8.8559602633,-11.4261119541 -8.999397686,-11.1993911317" />
      <path d="M -2.7073524437,-12.0850825729 Q -2.9338244142,-12.3577525318 -3.3305114846,-12.5816979431" />
      <path d="M -3.3305114846,-12.5816979431 C -3.370339995,-12.5378875463 -3.3964692383,-12.4731264369 -3.3968386796,-12.4173052347" />
      <path d="M -2.8329942482,-13.1359337339 L -3.3305114846,-12.5816979431" />
      <path d="M -4.3841306455,-12.7148080864 C -5.460936172,-13.0055226667 -6.8051077483,-13.0067482175 -7.7546552962,-12.7491113006" />
      <path d="M -3.3305114846,-12.5816979431 C -3.7340881981,-12.8098373728 -4.2583602239,-12.9876847188 -4.830443636,-13.0949699275 C -5.4020653747,-13.2029431212 -6.019664555,-13.2401047367 -6.597314999,-13.2057195355 C -7.1753645478,-13.1720317485 -7.7116449347,-13.0670058977 -8.1315529948,-12.9096985059 C -8.5526027933,-12.7528983182 -8.8559512134,-12.5444143463 -8.9993908495,-12.317694559" />
      <path d="M -2.707362293,-13.2033882909 Q -2.9338333877,-13.476053252 -3.3305139519,-13.6999949886" />
      <path d="M -3.3305139519,-13.6999949886 C -3.3703414978,-13.6561854009 -3.3964703876,-13.5914261206 -3.3968407047,-13.5356057947" />
      <path d="M -2.8329942482,-14.2542362862 L -3.3305139519,-13.6999949886" />
      <path d="M -4.3841760414,-13.8331169886 C -5.4609603777,-14.1238163814 -6.8050878586,-14.1250417769 -7.7546195695,-13.8674176434" />
      <path d="M -3.3305139519,-13.6999949886 C -3.734089423,-13.9281337279 -4.2583595554,-14.1059806546 -4.8304409878,-14.2132658475 C -5.4020607494,-14.3212390187 -6.0196578881,-14.3584010171 -6.5973068647,-14.3240165446 C -7.1753549387,-14.29032948 -7.7116344452,-14.185304693 -8.1315426497,-14.0279984701 C -8.5525925779,-13.8711994484 -8.8559421635,-13.6627167386 -8.999384013,-13.4359979863" />
      <path d="M -2.7073721445,-14.3216940114 Q -2.9338423632,-14.5943539732 -3.3305164193,-14.8182920341" />
      <path d="M -3.3305164193,-14.8182920341 C -3.3703430007,-14.7744832556 -3.3964715368,-14.7097258042 -3.3968427297,-14.6539063547" />
      <path d="M -2.8329942482,-15.3725388385 L -3.3305164193,-14.8182920341" />
      <path d="M -4.3842214391,-14.9514258909 C -5.4609845838,-15.2421100961 -6.8050679686,-15.2433353362 -7.7545838413,-14.9857239863" />
      <path d="M -3.3305164193,-14.8182920341 C -3.7340906478,-15.0464300831 -4.2583588868,-15.2242765904 -4.8304383396,-15.3315617675 C -5.4020561241,-15.4395349161 -6.0196512212,-15.4766972975 -6.5972987303,-15.4423135536 C -7.1753453295,-15.4086272115 -7.7116239555,-15.3036034883 -8.1315323044,-15.1462984344 C -8.5525823623,-14.9895005786 -8.8559331134,-14.7810191308 -8.9993771764,-14.5543014136" />
      <path d="M -2.7073819977,-15.4399997338 Q -2.9338513401,-15.7126546953 -3.3305188866,-15.9365890796" />
      <path d="M -3.3305188866,-15.9365890796 C -3.3703445035,-15.8927811102 -3.3964726861,-15.8280254877 -3.3968447547,-15.7722069147" />
      <path d="M -2.8329942482,-16.4908413909 L -3.3305188866,-15.9365890796" />
      <path d="M -4.3842668385,-16.0697347933 C -5.4610087903,-16.3604038107 -6.8050480781,-16.3616288955 -7.7545481114,-16.1040303293" />
      <path d="M -3.3305188866,-15.9365890796 C -3.7340918727,-16.1647264382 -4.2583582182,-16.3425725261 -4.8304356913,-16.4498576874 C -5.4020514987,-16.5578308135 -6.0196445543,-16.5949935779 -6.5972905959,-16.5606105626 C -7.1753357203,-16.526924943 -7.7116134658,-16.4219022837 -8.1315219591,-16.2645983987 C -8.5525721467,-16.1078017088 -8.8559240633,-15.8993215231 -8.9993703397,-15.6726048409" />
      <path d="M -2.707391848,-16.5583054526 Q -2.9338603143,-16.8309554159 -3.330521354,-17.054886125" />
      <path d="M -3.330521354,-17.054886125 C -3.3703460063,-17.0110789649 -3.3964738353,-16.9463251712 -3.3968467796,-16.8905074746" />
      <path d="M -2.8329942483,-17.6091439433 L -3.330521354,-17.054886125" />
      <path d="M -4.3843122396,-17.1880436957 C -5.4610329972,-17.4786975253 -6.8050281872,-17.4799224548 -7.7545123801,-17.2223366725" />
      <path d="M -3.330521354,-17.054886125 C -3.7340930975,-17.2830227934 -4.2583575496,-17.4608684619 -4.830433043,-17.5681536074 C -5.4020468733,-17.6761267109 -6.0196378873,-17.7132898582 -6.5972824614,-17.6789075716 C -7.175326111,-17.6452226744 -7.711602976,-17.540201079 -8.1315116136,-17.382898363 C -8.5525619309,-17.226102839 -8.8559150131,-17.0176239154 -8.9993635029,-16.7909082683" />
      <path d="M -2.7074016965,-17.6766111692 Q -2.9338692868,-17.9492561355 -3.3305238213,-18.1731831705" />
      <path d="M -3.3305238213,-18.1731831705 C -3.3703475092,-18.1293768195 -3.3964749846,-18.0646248547 -3.3968488045,-18.0088080345" />
      <path d="M -2.8329942483,-18.7274464957 L -3.3305238213,-18.1731831705" />
      <path d="M -4.3843576426,-18.3063525983 C -5.4610572046,-18.5969912399 -6.8050082958,-18.598216014 -7.7544766471,-18.3406430157" />
      <path d="M -3.3305238213,-18.1731831705 C -3.7340943224,-18.4013191485 -4.258356881,-18.5791643976 -4.8304303947,-18.6864495273 C -5.4020422479,-18.7944226083 -6.0196312202,-18.8315861386 -6.5972743268,-18.7972045806 C -7.1753165016,-18.7635204059 -7.7115924861,-18.6584998743 -8.1315012681,-18.5011983272 C -8.5525517151,-18.3444039692 -8.8559059627,-18.1359263078 -8.999356666,-17.9092116957" />
      <path d="M -2.7074115488,-18.7949168902 Q -2.9338782627,-19.067556857 -3.3305262887,-19.291480216" />
      <path d="M -3.3305262887,-19.291480216 C -3.3703490121,-19.2476746742 -3.3964761338,-19.1829245381 -3.3968508293,-19.1271085945" />
      <path d="M -2.8329942483,-19.8457490482 L -3.3305262887,-19.291480216" />
      <path d="M -4.3844030473,-19.424661501 C -5.4610814124,-19.7152849543 -6.8049884041,-19.7165095732 -7.7544409126,-19.4589493591" />
      <path d="M -3.3305262887,-19.291480216 C -3.7340955472,-19.5196155036 -4.2583562123,-19.6974603333 -4.8304277463,-19.8047454472 C -5.4020376224,-19.9127185057 -6.0196245531,-19.9498824189 -6.5972661922,-19.9155015896 C -7.1753068921,-19.8818181373 -7.7115819961,-19.7767986695 -8.1314909225,-19.6194982915 C -8.5525414992,-19.4627050995 -8.8558969123,-19.2542287001 -8.999349829,-19.0275151231" />
      <path d="M -2.7074214018,-19.9132226119 Q -2.9338872391,-20.1858575787 -3.330528756,-20.4097772614" />
      <path d="M -3.330528756,-20.4097772614 C -3.3703505149,-20.3659725288 -3.3964772831,-20.3012242214 -3.3968528541,-20.2454091544" />
      <path d="M -2.8329942483,-20.9640516007 L -3.330528756,-20.4097772614" />
      <path d="M -4.3844484538,-20.5429704038 C -5.4611056207,-20.8335786688 -6.804968512,-20.8348031323 -7.7544051765,-20.5772557027" />
      <path d="M -3.330528756,-20.4097772614 C -3.734096772,-20.6379118587 -4.2583555436,-20.815756269 -4.8304250979,-20.9230413671 C -5.4020329969,-21.031014403 -6.019617886,-21.0681786992 -6.5972580575,-21.0337985986 C -7.1752972826,-21.0001158688 -7.7115715061,-20.8950974648 -8.1314805768,-20.7377982558 C -8.5525312831,-20.5810062297 -8.8558878618,-20.3725310925 -8.9993429919,-20.1458185505" />
      <path d="M -2.7074312522,-21.0315283303 Q -2.933896213,-21.3041582991 -3.3305312234,-21.5280743068" />
      <path d="M -3.3305312234,-21.5280743068 C -3.3703520178,-21.4842703834 -3.3964784323,-21.4195239048 -3.3968548788,-21.3637097142" />
      <path d="M -2.8329942483,-22.0823541532 L -3.3305312234,-21.5280743068" />
      <path d="M -4.3844938622,-21.6612793067 C -5.4611298294,-21.9518723831 -6.8049486194,-21.9530966914 -7.7543694388,-21.6955620463" />
      <path d="M -3.3305312234,-21.5280743068 C -3.7340979968,-21.7562082138 -4.2583548749,-21.9340522047 -4.8304224495,-22.041337287 C -5.4020283713,-22.1493103004 -6.0196112187,-22.1864749795 -6.5972499227,-22.1520956075 C -7.175287673,-22.1184136002 -7.7115610159,-22.0133962601 -8.131470231,-21.8560982201 C -8.552521067,-21.69930736 -8.8558788111,-21.4908334849 -8.9993361547,-21.264121978" />
      <path d="M -2.7074411054,-22.149834052 Q -2.9339051895,-22.4224590209 -3.3305336907,-22.6463713523" />
      <path d="M -3.3305336907,-22.6463713523 C -3.3703535207,-22.602568238 -3.3964795815,-22.537823588 -3.3968569035,-22.4820102741" />
      <path d="M -2.8329942483,-23.2006567057 L -3.3305336907,-22.6463713523" />
      <path d="M -4.3845392722,-22.7795882096 C -5.4611540386,-23.0701660975 -6.8049287264,-23.0713902504 -7.7543336995,-22.8138683901" />
      <path d="M -3.3305336907,-22.6463713523 C -3.7340992216,-22.8745045689 -4.2583542062,-23.0523481403 -4.8304198011,-23.1596332068 C -5.4020237457,-23.2676061977 -6.0196045515,-23.3047712598 -6.5972417879,-23.2703926164 C -7.1752780633,-23.2367113316 -7.7115505257,-23.1316950554 -8.1314598851,-22.9743981844 C -8.5525108508,-22.8176084902 -8.8558697604,-22.6091358772 -8.9993293175,-22.3824254055" />
      <path d="M -2.7074509568,-23.2681397714 Q -2.9339141642,-23.5407597417 -3.330536158,-23.7646683977" />
      <path d="M -3.330536158,-23.7646683977 C -3.3703550235,-23.7208660926 -3.3964807307,-23.6561232713 -3.3968589281,-23.6003108339" />
      <path d="M -2.8329942483,-24.3189592583 L -3.330536158,-23.7646683977" />
      <path d="M -4.3845846841,-23.8978971127 C -5.4611782482,-24.1884598117 -6.804908833,-24.1896838094 -7.7542979586,-23.932174734" />
      <path d="M -3.330536158,-23.7646683977 C -3.7341004464,-23.992800924 -4.2583535375,-24.1706440759 -4.8304171526,-24.2779291267 C -5.40201912,-24.385902095 -6.0195978841,-24.4230675401 -6.597233653,-24.3886896254 C -7.1752684535,-24.355009063 -7.7115400354,-24.2499938507 -8.1314495391,-24.0926981487 C -8.5525006344,-23.9359096205 -8.8558607095,-23.7274382697 -8.9993224801,-23.5007288331" />
      <path d="M -2.7074608083,-24.3864454908 Q -2.9339231389,-24.6590604625 -3.3305386253,-24.8829654431" />
      <path d="M -3.3305386253,-24.8829654431 C -3.3703565264,-24.8391639471 -3.39648188,-24.7744229545 -3.3968609527,-24.7186113938" />
      <path d="M -2.8329942483,-25.4372618108 L -3.3305386253,-24.8829654431" />
      <path d="M -4.3846300977,-25.0162060158 C -5.4612024582,-25.3067535259 -6.8048889392,-25.3079773684 -7.7542622162,-25.0504810781" />
      <path d="M -3.3305386253,-24.8829654431 C -3.7341016711,-25.111097279 -4.2583528687,-25.2889400116 -4.830414504,-25.3962250465 C -5.4020144944,-25.5041979923 -6.0195912168,-25.5413638203 -6.5972255181,-25.5069866343 C -7.1752588437,-25.4733067944 -7.711529545,-25.3682926459 -8.131439193,-25.210998113 C -8.552490418,-25.0542107508 -8.8558516586,-24.8457406621 -8.9993156427,-24.6190322606" />
      <path d="M -2.7074706604,-25.5047512108 Q -2.933932114,-25.7773611835 -3.3305410926,-26.0012624885" />
      <path d="M -3.3305410926,-26.0012624885 C -3.3703580293,-25.9574618017 -3.3964830292,-25.8927226376 -3.3968629772,-25.8369119536" />
      <path d="M -2.8781569221,-26.5052499959 L -3.3305410926,-26.0012624885" />
      <path d="M -4.3846755131,-26.1345149191 C -5.4612266687,-26.4250472401 -6.804869045,-26.4262709273 -7.7542264722,-26.1687874222" />
      <path d="M -3.3305410926,-26.0012624885 C -3.7341028959,-26.2293936341 -4.2583522,-26.4072359472 -4.8304118555,-26.5145209663 C -5.4020098686,-26.6224938895 -6.0195845493,-26.6596601006 -6.597217383,-26.6252836432 C -7.1752492338,-26.5916045258 -7.7115190545,-26.4865914412 -8.1314288469,-26.3292980773 C -8.5524802015,-26.1725118811 -8.8558426076,-25.9640430546 -8.9993088051,-25.7373356882" />
      <path d="M -3.3940552531,-26.9204698323 Q -3.3893477655,-26.8952916945 -3.3775228916,-26.8764715064" />
      <line x1="-9.7745535803" y1="-8.9966057637" x2="-9.7745535803" y2="-9.1364416956" />
      <line x1="-1.7745535803" y1="-9.5557590167" x2="-1.7745535803" y2="-9.6955890746" />
      <path d="M -7.7547624669,-9.3941922729 L -8.0926268069,-9.3050379279" />
      <line x1="-9.7745535803" y1="-10.1149083278" x2="-9.7745535803" y2="-10.2547414748" />
      <line x1="-1.7745535803" y1="-10.6740615693" x2="-1.7745535803" y2="-10.8138888539" />
      <path d="M -4.384039859,-10.4781902823 L -4.0481759532,-10.3895717736" />
      <path d="M -7.7547267449,-10.5124986153 L -8.0925836107,-10.4233490723" />
      <line x1="-9.7745535803" y1="-11.2332108689" x2="-9.7745535803" y2="-11.3730412539" />
      <line x1="-1.7745535803" y1="-11.792364121" x2="-1.7745535803" y2="-11.932188633" />
      <path d="M -4.3840852514,-11.5964991843 L -4.0482288836,-11.5078854778" />
      <path d="M -7.7546910213,-11.6308049579 L -8.092540413,-11.5416602168" />
      <line x1="-9.7745535803" y1="-12.3515134205" x2="-9.7745535803" y2="-12.4913410331" />
      <line x1="-1.7745535803" y1="-12.9106666738" x2="-1.7745535803" y2="-13.0504884122" />
      <path d="M -4.3841306455,-12.7148080864 L -4.0482818159,-12.6261991822" />
      <path d="M -7.7546552962,-12.7491113006 L -8.0924972137,-12.6599713613" />
      <line x1="-9.7745535803" y1="-13.4698159729" x2="-9.7745535803" y2="-13.6096408122" />
      <line x1="-1.7745535803" y1="-14.028969226" x2="-1.7745535803" y2="-14.1687881912" />
      <path d="M -4.3841760414,-13.8331169886 L -4.0483347507,-13.7445128868" />
      <path d="M -7.7546195695,-13.8674176434 L -8.0924540119,-13.7782825061" />
      <line x1="-9.7745535803" y1="-14.5881185253" x2="-9.7745535803" y2="-14.7279405913" />
      <line x1="-1.7745535803" y1="-15.1472717784" x2="-1.7745535803" y2="-15.2870879704" />
      <path d="M -4.3842214391,-14.9514258909 L -4.0483876877,-14.8628265915" />
      <path d="M -7.7545838413,-14.9857239863 L -8.0924108082,-14.8965936511" />
      <line x1="-9.7745535803" y1="-15.7064210774" x2="-9.7745535803" y2="-15.8462403705" />
      <line x1="-1.7745535803" y1="-16.2655743309" x2="-1.7745535803" y2="-16.4053877497" />
      <path d="M -4.3842668385,-16.0697347933 L -4.0484406269,-15.9811402963" />
      <path d="M -7.7545481114,-16.1040303293 L -8.0923676024,-16.0149047962" />
      <line x1="-9.7745535803" y1="-16.8247236319" x2="-9.7745535803" y2="-16.9645401496" />
      <line x1="-1.7745535803" y1="-17.3838768831" x2="-1.7745535803" y2="-17.5236875288" />
      <path d="M -4.3843122396,-17.1880436957 L -4.0484935683,-17.0994540013" />
      <path d="M -7.7545123801,-17.2223366725 L -8.0923243946,-17.1332159415" />
      <line x1="-9.7745535803" y1="-17.943026182" x2="-9.7745535803" y2="-18.0828399288" />
      <line x1="-1.7745535803" y1="-18.5021794356" x2="-1.7745535803" y2="-18.6419873079" />
      <path d="M -4.3843576426,-18.3063525983 L -4.048546512,-18.2177677065" />
      <path d="M -7.7544766471,-18.3406430157 L -8.0922811847,-18.251527087" />
      <line x1="-9.7745535803" y1="-19.061328735" x2="-9.7745535803" y2="-19.2011397079" />
      <line x1="-1.7745535803" y1="-19.620481988" x2="-1.7745535803" y2="-19.7602870872" />
      <path d="M -4.3844030473,-19.424661501 L -4.0485994579,-19.3360814118" />
      <path d="M -7.7544409126,-19.4589493591 L -8.0922379729,-19.3698382327" />
      <line x1="-9.7745535803" y1="-20.1796312873" x2="-9.7745535803" y2="-20.319439487" />
      <line x1="-1.7745535803" y1="-20.7387845404" x2="-1.7745535803" y2="-20.8785868663" />
      <path d="M -4.3844484538,-20.5429704038 L -4.0486524061,-20.4543951172" />
      <path d="M -7.7544051765,-20.5772557027 L -8.0921947589,-20.4881493785" />
      <line x1="-9.7745535803" y1="-21.2979338392" x2="-9.7745535803" y2="-21.4377392662" />
      <line x1="-1.7745535803" y1="-21.8570870932" x2="-1.7745535803" y2="-21.9968866455" />
      <path d="M -4.3844938622,-21.6612793067 L -4.0487053568,-21.5727088229" />
      <path d="M -7.7543694388,-21.6955620463 L -8.0921515425,-21.6064605247" />
      <line x1="-9.7745535803" y1="-22.4162363931" x2="-9.7745535803" y2="-22.5560390454" />
      <line x1="-1.7745535803" y1="-22.9753896459" x2="-1.7745535803" y2="-23.1151864247" />
      <path d="M -4.3845392722,-22.7795882096 L -4.0487583092,-22.6910225285" />
      <path d="M -7.7543336995,-22.8138683901 L -8.0921083249,-22.7247716707" />
      <line x1="-9.7745535803" y1="-23.534538945" x2="-9.7745535803" y2="-23.6743388245" />
      <line x1="-1.7745535803" y1="-24.0936921983" x2="-1.7745535803" y2="-24.2334862039" />
      <path d="M -4.3845846841,-23.8978971127 L -4.0488112641,-23.8093362344" />
      <path d="M -7.7542979586,-23.932174734 L -8.0920651049,-23.8430828171" />
      <line x1="-9.7745535803" y1="-24.6528414985" x2="-9.7745535803" y2="-24.7926386037" />
      <line x1="-1.7745535803" y1="-25.2119947526" x2="-1.7745535803" y2="-25.2578489561" />
      <path d="M -4.3846300977,-25.0162060158 L -4.0488642215,-24.9276499405" />
      <path d="M -7.7542622162,-25.0504810781 L -8.0920218824,-24.9613939638" />
      <line x1="-2.73757626" y1="-26.4824838053" x2="-2.3380621657" y2="-26.1728250974" />
      <path d="M -4.3846755131,-26.1345149191 L -4.0489171806,-26.0459636466" />
      <path d="M -7.7542264722,-26.1687874222 L -8.0919786591,-26.0797051103" />
      <line x1="-3.0021733183" y1="-26.6875698944" x2="-2.9731279837" y2="-26.6650571948" />
      <line x1="-8.5469338423" y1="-26.6875698944" x2="-8.9820331556" y2="-26.350329499" />
    </g>
  </g>
</svg>