<?xml version='1.0' encoding='utf-8'?>
<svg width="513.0000000007mm" height="416.611718428mm" viewBox="-3.1170545576 -2.157169754 8.2279266656 6.6819701116" version="1.1" xmlns="http://www.w3.org/2000/svg">
  <g transform="scale(1,-1)" stroke-linecap="round">
    <g fill="none" stroke="rgb(64,192,64)" stroke-width="0.016038843402707607" id="Visible">
      <path d="M -1.8961504387,-4.2311082695 L -1.8155513271,-4.1845805083" />
      <path d="M -1.7877585404,-4.1685364587 L -1.7870637128,-4.1681353528" />
      <path d="M -1.7870637128,-4.1681353528 Q -1.7642163744,-4.1545766333 -1.7637559695,-4.1359717614" />
      <path d="M -3.1090350359,-4.1473043223 Q -3.1084876653,-4.1668178274 -3.0837050843,-4.1805957345" />
      <path d="M -3.0837050843,-4.1805957345 L -3.0829859005,-4.1809832477" />
      <path d="M -3.0542185479,-4.1964837736 L -2.9707932253,-4.241435299" />
      <path d="M -2.9420258726,-4.2569358249 L -2.6255849936,-4.4274416107" />
      <path d="M -2.596817641,-4.4429421367 L -2.5133923184,-4.487893662" />
      <path d="M -2.4846249657,-4.503394188 L -2.4839057819,-4.5037817011" />
      <path d="M -2.4839057819,-4.5037817011 C -2.4528038719,-4.5214270585 -2.3965369545,-4.5208863482 -2.3665434768,-4.5026538803" />
      <path d="M -2.3665434768,-4.5026538803 L -2.3658486569,-4.502252779" />
      <path d="M -2.3380558625,-4.4862087249 L -2.2574567586,-4.4396809681" />
      <path d="M -2.2296639719,-4.4236369184 L -1.9239432254,-4.2471523192" />
      <path d="M -1.8155444238,-4.1685327365 Q -1.8016483592,-4.1623187385 -1.7877585405,-4.1685364587" />
      <path d="M -3.0828764911,-4.1157478565 L -3.0850324805,-4.114739634" />
      <path d="M -3.0829859005,-4.1809832476 Q -3.0685968634,-4.1742269943 -3.054212388,-4.1809868141" />
      <path d="M -2.9707932252,-4.2414352989 Q -2.9564041434,-4.2346790323 -2.9420196651,-4.2414388929" />
      <path d="M -2.6255849936,-4.4274416106 Q -2.6111957703,-4.4206853017 -2.5968112823,-4.427445292" />
      <path d="M -2.5133923183,-4.487893662 Q -2.4990030473,-4.4811373389 -2.4846185561,-4.4878973727" />
      <path d="M -2.3658417536,-4.486205007 Q -2.3519456882,-4.4799910051 -2.3380558625,-4.4862087249" />
      <path d="M -2.2574498553,-4.4236332006 Q -2.2435537938,-4.4174192005 -2.2296639719,-4.4236369185" />
      <path d="M -1.9239363221,-4.2311045474 Q -1.9100402575,-4.2248905494 -1.8961504387,-4.2311082696" />
      <path d="M -1.8961504387,-4.2311082695 C -1.8954641012,-1.6722018186 -1.3720597237,-0.0687915247 -0.3755292188,0.6720217242" />
      <path d="M 4.9212487173,-0.0191989294 L 4.936095812,-0.0271898128" />
      <path d="M -1.8155513271,-4.1845805083 C -1.8149751948,-1.6580012062 -1.3043701757,-0.0625628273 -0.3324359939,0.6900599433" />
      <path d="M 4.936095812,-0.0271898128 L 5.0166949236,0.0193379485" />
      <path d="M -1.7877585405,-4.1685364587 C -1.7871784281,-1.6530839333 -1.2810369215,-0.0605171384 -0.3174608863,0.6960956329" />
      <path d="M 5.0296406153,0.0433728813 L 5.0444877102,0.0353819981" />
      <path d="M 5.0166949235,0.0193379485 C 5.0160742696,0.0329305483 5.0319679895,0.0503515134 5.040078251,0.0449667339" />
      <path d="M 5.040078251,0.0449667339 Q 5.0443885168,0.042481303 5.0444877102,0.0353819981" />
      <path d="M 5.0444877103,0.0353819981 L 5.0451825378,0.0357831039" />
      <path d="M 5.0451825378,0.0357831039 C 5.0759985396,0.0526230778 5.1036472454,0.1016130605 5.1028525863,0.1379670793" />
      <path d="M 5.0889887108,0.1462594093 L 5.1028525863,0.1387971102" />
      <path d="M 5.1028525863,0.1379670793 L 5.1028525863,0.1387971102" />
      <path d="M 5.1028525863,0.1387971102 Q 5.0973995066,0.1357333718 5.0933656495,0.1377909669" />
      <path d="M 5.0933656495,0.1377909669 C 5.0840557608,0.1417224559 5.0907325449,0.1657944604 5.1028525863,0.1719983454" />
      <path d="M 5.088988707,0.2757442913 L 5.1028525863,0.2682819277" />
      <path d="M 5.1028525863,0.1719983454 L 5.1028525863,0.2682819277" />
      <path d="M 5.1028525863,0.2682819277 Q 5.0973995066,0.2652181893 5.0933656495,0.2672757844" />
      <path d="M 5.0933656495,0.2672757844 C 5.0840557608,0.2712072734 5.0907325449,0.295279278 5.1028525863,0.301483163" />
      <path d="M 5.1028525863,0.301483163 L 5.1028525863,0.3417396607" />
      <path d="M 5.1028525863,0.3417396607 Q 5.1026368373,0.3571806456 5.0932620098,0.362586457" />
      <path d="M 5.0932620098,0.362586457 C 5.0756221888,0.3742983536 5.0410533432,0.3364077561 5.0424032584,0.3068438431" />
      <path d="M 4.8786603884,0.3270170018 L 5.0424032584,0.2398907719" />
      <path d="M 5.0424032584,0.3068438431 L 5.0424032584,0.2398907719" />
      <path d="M 5.0424032585,0.239890772 C 5.0428282107,0.2117594012 5.0106965123,0.1769578617 4.9939344859,0.1873947015" />
      <path d="M 4.9939344858,0.1873947015 L 4.9040998142,0.2428486479" />
      <path d="M 4.9040998142,0.2428486479 Q 4.8791862418,0.2591158924 4.8786603884,0.3015292923" />
      <path d="M 4.8786603884,0.3015292923 L 4.8786603884,0.4078126984" />
      <path d="M 4.8786603884,0.4078126984 Q 4.8791862356,0.4508330782 4.9040996694,0.4958641179" />
      <path d="M 4.9040996694,0.4958641178 L 4.9939284848,0.6550266113" />
      <path d="M 5.0122110731,0.6745197641 L 5.0424032584,0.6582876959" />
      <path d="M 4.9939284847,0.6550266113 Q 5.0136868478,0.684426371 5.0332088221,0.6773374714" />
      <path d="M 5.0332088221,0.6773374714 Q 5.0418862609,0.672365802 5.0424032584,0.6582876959" />
      <path d="M 5.0424032584,0.6582876959 L 5.0424032584,0.5915444355" />
      <path d="M 5.0424032584,0.5915444355 Q 5.0426190074,0.5761034507 5.0519938349,0.5706976393" />
      <path d="M 5.0519938349,0.5706976393 C 5.0696336559,0.5589857427 5.1042025015,0.5968763402 5.1028525863,0.6264402532" />
      <path d="M 5.0889886956,0.6741593065 L 5.1028525863,0.6666967509" />
      <path d="M 5.1028525863,0.6264402532 L 5.1028525863,0.6666967509" />
      <path d="M 5.1028525863,0.6666967509 Q 5.0973995066,0.6636330125 5.0933656495,0.6656906076" />
      <path d="M 5.0933656495,0.6656906076 C 5.0840557608,0.6696220966 5.0907325449,0.6936941012 5.1028525863,0.6998979862" />
      <path d="M 5.088988692,0.8036441846 L 5.1028525863,0.7961815685" />
      <path d="M 5.1028525863,0.6998979862 L 5.1028525863,0.7961815685" />
      <path d="M 0.4392740248,2.0351933709 Q 0.5432764218,2.0554329572 0.6509222629,2.0691923386" />
      <path d="M 5.1028525863,0.7961815685 Q 5.0973995066,0.7931178301 5.0933656495,0.7951754252" />
      <path d="M 5.0933656495,0.7951754252 C 5.0840557608,0.7991069142 5.0907325449,0.8231789187 5.1028525863,0.8293828037" />
      <path d="M 5.1028525863,0.8293828037 L 5.1028525863,0.8302128346" />
      <path d="M 5.1028525863,0.8302128346 Q 5.1024400697,0.8596772659 5.0845533254,0.8699894803" />
      <path d="M 5.0845533254,0.8699894803 Q 5.0678152207,0.8785289124 5.0451825378,0.8658139856" />
      <path d="M -0.5524679028,1.7428436619 L -0.5386064549,1.7509004953" />
      <path d="M -0.5386064549,1.7509004953 C 0.7487788465,2.4936313792 2.632796661,2.1661353255 5.044487718,0.8654128842" />
      <path d="M 5.0451825378,0.8658139856 L 5.044487718,0.8654128842" />
      <path d="M -0.5663961973,1.7348583194 C 0.7209678019,2.477576096 2.6050292809,2.1501069093 5.0166949158,0.8493688257" />
      <path d="M 5.044487718,0.8654128842 C 5.0451083654,0.8518202767 5.0292146411,0.8343993131 5.0211043775,0.8397840937" />
      <path d="M 5.0211043775,0.8397840937 Q 5.0167941123,0.8422695239 5.0166949158,0.8493688257" />
      <path d="M -0.6608598011,1.680271851 L -0.6469983532,1.6883286844" />
      <path d="M -0.6469983532,1.6883286844 C 0.6403869482,2.4310595683 2.5244047627,2.1035635146 4.9360958197,0.8028410733" />
      <path d="M 5.0166949158,0.8493688257 L 4.9360958197,0.8028410733" />
      <path d="M -0.8247210859,1.5790708334 Q -0.7512228566,1.6281625295 -0.6747880956,1.6722865085" />
      <path d="M -0.6747880956,1.6722865085 C 0.6125759036,2.4150042851 2.4966373826,2.0875350984 4.9083030175,0.7867970148" />
      <path d="M 4.9360958197,0.8028410733 C 4.9367164671,0.7892484658 4.9208227428,0.7718275022 4.9127124792,0.7772122828" />
      <path d="M 4.9127124792,0.7772122828 Q 4.908402214,0.779697713 4.9083030175,0.7867970148" />
      <path d="M -0.9943733343,1.4877432021 L -0.9805118864,1.4958000355" />
      <path d="M -0.9805118864,1.4958000355 C 0.306873415,2.2385309194 2.1908912295,1.9110348657 4.6025822865,0.6103124244" />
      <path d="M 4.9083030175,0.7867970148 L 4.6025822865,0.6103124244" />
      <path d="M -1.0083016288,1.4797578596 C 0.2790623704,2.2224756362 2.1631238494,1.8950064495 4.5747894843,0.5942683659" />
      <path d="M 4.6025822865,0.6103124244 C 4.6032029339,0.5967198169 4.5873092096,0.5792988533 4.579198946,0.5846836339" />
      <path d="M 4.579198946,0.5846836339 Q 4.5748886808,0.5871690641 4.5747894843,0.5942683659" />
      <path d="M -1.1027652326,1.4251713912 L -1.0889037847,1.4332282246" />
      <path d="M -1.0889037847,1.4332282246 C 0.1984815167,2.1759591085 2.0824993312,1.8484630548 4.4941903882,0.5477406136" />
      <path d="M 4.5747894843,0.5942683659 L 4.4941903882,0.5477406136" />
      <path d="M -1.1166935271,1.4171860488 C 0.1706704721,2.1599038253 2.0547319511,1.8324346386 4.466397586,0.531696555" />
      <path d="M 4.4941903882,0.5477406136 C 4.4948110356,0.5341480061 4.4789173113,0.5167270424 4.4708070477,0.5221118231" />
      <path d="M 4.4708070477,0.5221118231 Q 4.4664967825,0.5245972532 4.466397586,0.531696555" />
      <path d="M 4.4663975861,0.531696555 L 4.4657027739,0.5312954581" />
      <path d="M 4.4657027739,0.5312954581 C 4.4348867721,0.5144554842 4.4072380663,0.4654655015 4.4080327255,0.4291114827" />
      <path d="M -3.0829859005,-4.1809832477 C -3.0842621313,-1.3134399704 -2.4490537276,0.5509947912 -1.1330639615,1.3107467347" />
      <path d="M -1.1330639615,1.3107467347 C 0.1393555115,2.044909598 2.0055123879,1.7238530586 4.4080327255,0.4282814519" />
      <path d="M 4.4080327255,0.4291114827 L 4.4080327255,0.4282814519" />
      <path d="M -3.0542185478,-4.1964837736 C -3.0553850253,-1.3341837349 -2.4216645038,0.5206247601 -1.1130683071,1.2761045656" />
      <path d="M -1.1130683071,1.2761045656 C 0.1522086382,2.0061816148 2.0098950862,1.6882126713 4.4080327255,0.3950802166" />
      <path d="M 4.4080327255,0.4282814519 Q 4.4134858008,0.4313451843 4.4175196545,0.4292875907" />
      <path d="M 4.4175196545,0.4292875907 C 4.4268295403,0.4253561027 4.4201527636,0.4012841082 4.4080327255,0.3950802166" />
      <path d="M -2.9707932253,-4.241435299 C -2.9715908573,-1.3943016212 -2.3422479211,0.4325523507 -1.0550789862,1.1756430439" />
      <path d="M -1.0550789862,1.1756430439 C 0.1895469473,1.8939015641 2.0225371819,1.584805958 4.4080327255,0.2987966343" />
      <path d="M 4.4080327255,0.3950802166 L 4.4080327255,0.2987966343" />
      <path d="M -2.9420258726,-4.2569358249 C -2.9427007849,-1.4150372352 -2.31486264,0.4021801393 -1.0350853185,1.1409996404" />
      <path d="M -1.0350853185,1.1409996404 C 0.2024140957,1.855181958 2.0269009052,1.549153724 4.4080327255,0.2655953991" />
      <path d="M 4.4080327255,0.2987966343 Q 4.4134858008,0.3018603668 4.4175196545,0.2998027732" />
      <path d="M 4.4175196545,0.2998027732 C 4.4268295403,0.2958712852 4.4201527636,0.2717992907 4.4080327255,0.2655953991" />
      <path d="M -2.6255849936,-4.4274416107 C -2.6249828029,-1.6429783887 -2.0135329837,0.0679875516 -0.8151398925,0.7599821538" />
      <path d="M -0.8151398925,0.7599821538 C 0.3440762595,1.4291137889 2.0748456306,1.1571017062 4.4080327255,-0.0996181889" />
      <path d="M 4.4080327255,0.265595399 L 4.4080327255,-0.0996181889" />
      <path d="M -2.5968176409,-4.4429421366 C -2.5960200412,-1.66383712 -1.9862268538,0.0377496095 -0.7951234444,0.7253006547" />
      <path d="M -0.7951234444,0.7253006547 C 0.3568572015,1.3905403737 2.0792893486,1.121313993 4.4080327255,-0.1328194241" />
      <path d="M 4.4080327255,-0.0996181889 Q 4.4134858008,-0.0965544564 4.4175196545,-0.09861205" />
      <path d="M 4.4175196545,-0.09861205 C 4.4268295403,-0.102543538 4.4201527636,-0.1266155325 4.4080327255,-0.1328194241" />
      <path d="M -2.5133923184,-4.487893662 C -2.5122388737,-1.7239634478 -1.9068063715,-0.0503205603 -0.7371320949,0.6248403917" />
      <path d="M -0.7371320949,0.6248403917 C 0.3941814974,1.2782518785 2.0919501537,1.0179192371 4.4080327255,-0.2291030064" />
      <path d="M 4.4080327255,-0.1328194242 L 4.4080327255,-0.2291030064" />
      <path d="M -2.4846249657,-4.5033941879 C -2.4833344738,-1.7446904682 -1.8794255933,-0.0806954774 -0.7171409438,0.5901954386" />
      <path d="M -0.7171409438,0.5901954386 C 0.4070638222,1.2395415564 2.0962925092,0.982254081 4.4080327255,-0.2623042417" />
      <path d="M 4.4080327255,-0.2291030064 Q 4.4134858008,-0.226039274 4.4175196545,-0.2280968676" />
      <path d="M 4.4175196545,-0.2280968676 C 4.4268295403,-0.2320283556 4.4201527636,-0.2561003501 4.4080327255,-0.2623042417" />
      <path d="M 4.4080327255,-0.2623042417 L 4.4080327255,-0.2631342726" />
      <path d="M 4.4080327255,-0.2631342726 Q 4.4084452421,-0.2925987039 4.4263319863,-0.3029109183" />
      <path d="M 4.4263319863,-0.3029109183 Q 4.443070091,-0.3114503503 4.4657027739,-0.2987354236" />
      <path d="M -2.3658486569,-4.502252779 C -2.3644525898,-3.1319203435 -2.2160258923,-2.0289282883 -1.9205685644,-1.1932766135 C -1.6262050008,-0.3563487858 -1.1925056034,0.2179368355 -0.6174884111,0.5507331986" />
      <path d="M 4.4657027739,-0.2987354236 L 4.4663975938,-0.2983343222" />
      <path d="M -2.3380558625,-4.4862087249 C -2.3366451928,-3.121284647 -2.1893890702,-2.0216223761 -1.8962874947,-1.1872219122 C -1.6042203919,-0.3515297085 -1.1737811063,0.2235329989 -0.6033760227,0.558811655" />
      <path d="M 4.479343293,-0.2742993848 L 4.4941903882,-0.2822902681" />
      <path d="M 4.4663975938,-0.2983343222 C 4.4657769431,-0.2847417186 4.4816706652,-0.2673207542 4.4897809278,-0.2727055342" />
      <path d="M 4.4897809278,-0.2727055342 Q 4.4940911933,-0.2751909648 4.4941903882,-0.2822902681" />
      <path d="M -2.2574567586,-4.4396809681 C -2.2561312543,-3.090820526 -2.1122821282,-2.0010308419 -1.8259093803,-1.1703119157 C -1.5405917659,-0.3383751459 -1.1199852083,0.2386918618 -0.5628783067,0.5812667592" />
      <path d="M 4.4941903882,-0.2822902681 L 4.5747894921,-0.2357625113" />
      <path d="M -2.2296639719,-4.4236369185 Q -2.2276526397,-2.4086149257 -1.8016402569,-1.1645477606 Q -1.3773358655,0.0763522035 -0.5488041027,0.5888229677" />
      <path d="M 4.5877351877,-0.2117275806 L 4.6025822787,-0.2197184617" />
      <path d="M 4.5747894921,-0.2357625113 C 4.5741688416,-0.2221699115 4.5900625592,-0.204748952 4.5981728195,-0.2101337305" />
      <path d="M 4.5981728195,-0.2101337305 Q 4.6024830838,-0.2126191603 4.6025822787,-0.2197184617" />
      <path d="M -1.9239432254,-4.2471523192 C -1.9232166906,-1.6770971357 -1.3953672144,-0.0710101003 -0.3902787952,0.6656151333" />
      <path d="M 4.6025822788,-0.2197184617 L 4.9083030253,-0.0432338624" />
      <path d="M 4.9083030253,-0.0432338624 C 4.9076823713,-0.0296412626 4.9235760912,-0.0122202975 4.9316863527,-0.017605077" />
      <path d="M 4.9316863527,-0.017605077 Q 4.9359966185,-0.0200905078 4.9360958119,-0.0271898128" />
      <path d="M 4.4684820534,-0.0619246529 L 4.516956827,-0.0879480494" />
      <path d="M 4.6067856425,0.0712144442 L 4.516956827,-0.0879480494" />
      <path d="M 4.516956827,-0.0879480494 Q 4.4971984639,-0.1173478091 4.4776764896,-0.1102589095" />
      <path d="M 4.4776764896,-0.1102589095 Q 4.4689990509,-0.10528724 4.4684820534,-0.0912091339" />
      <path d="M 4.4684820534,-0.0912091339 L 4.4684820534,0.32718779" />
      <path d="M 4.4684820534,0.32718779 C 4.4680571011,0.3553191608 4.5001887995,0.3901207003 4.516950826,0.3796838605" />
      <path d="M 4.516950826,0.3796838605 L 4.6067854977,0.3242299141" />
      <path d="M 4.6067854977,0.3242299141 Q 4.63169907,0.3079626696 4.6322249234,0.2655492697" />
      <path d="M 4.6322249234,0.2655492697 L 4.6322249234,0.1592658637" />
      <path d="M 4.6322249234,0.1592658637 Q 4.6316990763,0.1162454839 4.6067856424,0.0712144442" />
      <path d="M 4.7554426559,0.1984611156 Q 4.7276948521,0.1827848027 4.706822105,0.1933046312" />
      <path d="M 4.706822105,0.1933046312 C 4.6782736874,0.2070817894 4.6767496263,0.2639665715 4.7034703873,0.3117059614 C 4.7287547607,0.3602463148 4.7769472451,0.389980747 4.8040632068,0.3737739308" />
      <path d="M 4.8040632068,0.3737739308 C 4.8251956852,0.3629965618 4.8325550482,0.3283841749 4.821651097,0.2904121454 C 4.811465688,0.2524899063 4.7836191632,0.2142040046 4.7554426559,0.1984611156" />
      <path d="M 4.6495417955,0.3999909518 L 4.5597152554,0.4554458206" />
      <path d="M 4.5597152554,0.4554458205 C 4.5428191077,0.4657787459 4.5565799323,0.512227616 4.5804101853,0.525300363" />
      <path d="M 4.5804101853,0.525300363 L 4.9306507594,0.7274850956" />
      <path d="M 4.8991997546,0.7093292523 L 4.951173396,0.6814315462" />
      <path d="M 4.9306507594,0.7274850955 Q 4.9414740712,0.7331481176 4.949474476,0.7290384171" />
      <path d="M 4.949474476,0.7290384171 C 4.9609454395,0.7234893824 4.9617546351,0.7008110549 4.951173396,0.6814315462" />
      <path d="M 4.9511733959,0.6814315461 L 4.8613414232,0.522257516" />
      <path d="M 4.8613414231,0.522257516 Q 4.8356849415,0.477684979 4.7999265212,0.4564143936" />
      <path d="M 4.7999265212,0.4564143936 L 4.7109565527,0.4050543553" />
      <path d="M 4.7109565527,0.4050543553 Q 4.6768711705,0.3859053642 4.6516631979,0.3987659596" />
      <path d="M 4.6516631979,0.3987659596 L 4.6495417955,0.3999909518" />
      <path d="M 4.8354126639,0.173453982 L 4.9511700564,0.1116327415" />
      <path d="M 4.8613435163,0.1670876102 L 4.9511700564,0.1116327415" />
      <path d="M 4.7540579558,0.1355441904 L 4.9304751265,0.041778199" />
      <path d="M 4.9511700564,0.1116327415 C 4.9680662042,0.1012998162 4.9543053795,0.0548509461 4.9304751265,0.041778199" />
      <path d="M 4.5523582982,-0.14541805 L 4.5802345525,-0.1604065335" />
      <path d="M 4.9304751265,0.041778199 L 4.5802345525,-0.1604065335" />
      <path d="M 4.5802345525,-0.1604065336 Q 4.5694112406,-0.1660695557 4.5614108358,-0.1619598551" />
      <path d="M 4.5614108358,-0.1619598551 C 4.5499398724,-0.1564108204 4.5491306767,-0.1337324929 4.5597119159,-0.1143529842" />
      <path d="M 4.5597119159,-0.1143529842 L 4.6495438886,0.0448210459" />
      <path d="M 4.6495438886,0.0448210459 Q 4.6752003703,0.0893935829 4.7109587906,0.1106641684" />
      <path d="M 4.7109587906,0.1106641684 L 4.7999287591,0.1620242066" />
      <path d="M 4.7999287591,0.1620242066 Q 4.8340141413,0.1811731978 4.8592221138,0.1683126023" />
      <path d="M 4.8592221138,0.1683126023 L 4.8613435163,0.1670876101" />
      <path d="M -1.7870637128,-4.1681353528 C -1.7865243238,-1.6529802823 -1.2804104052,-0.0604341182 -0.3170910806,0.6962431867" />
      <path d="M 4.8786603884,0.3939746512 L 5.0424032584,0.3068438431" />
      <path d="M 4.9776863379,0.6262480887 L 5.0424032584,0.5915444355" />
      <path d="M -0.5379054914,1.7513052595 C 0.7494584621,2.4940207388 2.6335188244,2.166551023 5.0451825378,0.8658139856" />
      <path d="M -1.1173883154,1.4167848493 C 0.1699969408,2.1595134362 2.0540136382,1.8320168531 4.4657027739,0.5312954581" />
      <path d="M -3.0837050843,-4.1805957345 C -3.0848034446,-1.360055287 -2.4708088315,0.4897978065 -1.1979010918,1.2732593971 C 0.0752098331,2.056377005 1.9646761498,1.7469171032 4.4080327255,0.4291114827" />
      <path d="M -2.4839057819,-4.5037817011 C -2.482825088,-1.7907938075 -1.8981526459,-0.1363309055 -0.7737906952,0.5552606456 C 0.3503680704,1.2471961795 2.0568481951,1.0024919732 4.4080327255,-0.2631342726" />
      <path d="M -2.3665434768,-4.5026538803 C -2.3651139329,-3.1320205947 -2.2166335508,-2.0288608067 -1.9211023306,-1.1931745163 C -1.6266144228,-0.356179946 -1.1926763105,0.2181077896 -0.6174771846,0.5507397298" />
      <path d="M 4.4684820534,0.1449547475 L 4.6067856425,0.0712144442" />
      <path d="M 4.502723087,0.3798669153 L 4.6067854977,0.3242299141" />
      <path d="M 4.4740845509,0.3497478157 L 4.6322249234,0.2655492697" />
      <path d="M 4.4684820534,0.246402684 L 4.6322249234,0.1592658637" />
      <path d="M 4.6844005188,0.2365357437 L 4.7554426559,0.1984611156" />
      <path d="M 4.7125144723,0.6015607164 L 4.8613414232,0.522257516" />
      <path d="M 4.6235446493,0.5502007621 L 4.7999265212,0.4564143936" />
      <path d="M 4.5542930836,0.4884815802 L 4.7109565527,0.4050543553" />
      <path d="M 4.8570220301,0.169415371 L 4.8613435163,0.1670876102" />
      <path d="M -0.3152813685,0.696964233 C -0.8755169071,0.2587094067 -1.2535590468,-0.4737616634 -1.4718316885,-1.3393781533 C -1.6860887804,-2.1828109218 -1.7632008509,-3.1412105924 -1.7637559695,-4.1359717614" />
      <path d="M 4.8915387604,0.4696135542 L 5.0932620098,0.362586457" />
      <path d="M 4.9708576486,0.6141487284 L 5.0519938349,0.5706976393" />
      <path d="M -0.5379054914,1.7513052595 C 0.2226343401,2.1959675423 1.1970818354,2.2432895067 2.2158297419,2.013648304 C 3.149615889,1.8058779242 4.1201239065,1.3889573319 5.0845533254,0.8699894803" />
      <path d="M -0.5379116351,1.7513015966 L -0.5379820077,1.7512609724" />
      <path d="M -0.5663992571,1.7348564367 L -0.6469983532,1.6883286844" />
      <path d="M -0.6747911554,1.6722846258 L -0.9805118864,1.4958000355" />
      <path d="M -1.0083046886,1.4797559769 L -1.0889037847,1.4332282246" />
      <path d="M -1.1166965869,1.4171841661 L -1.1167654121,1.4171444351" />
      <path d="M -1.1173852554,1.4167867321 C -1.5200783,1.1850508194 -1.8620215808,0.8484218927 -2.1344433453,0.4308913423 C -2.4075885622,0.0137140319 -2.612622125,-0.4827947428 -2.7607159128,-1.0250642213 C -3.0166179254,-1.9644713821 -3.1084330495,-3.0347941523 -3.1090350359,-4.1473043223" />
      <path d="M -0.6174771846,0.5507397298 C 0.0504220377,0.9425799528 0.9328138041,0.9671272821 1.8681973948,0.7387942886 C 2.6982677037,0.5385648004 3.5643925638,0.1608931874 4.4263319863,-0.3029109183" />
    </g>
  </g>
</svg>