<?xml version='1.0' encoding='utf-8'?>
<svg width="512.9999999998mm" height="364.6818157043mm" viewBox="-24.5915371857 -17.0980217963 65.1435608976 46.3093022799" version="1.1" xmlns="http://www.w3.org/2000/svg">
  <g transform="scale(1,-1)" stroke-linecap="round">
    <g fill="none" stroke="rgb(64,192,64)" stroke-width="0.12698549882576998" id="Visible">
      <path d="M -15.5381169669,-28.2605496247 C -14.8918751791,-27.8806946128 -14.5250443338,-27.3995888443 -14.5279820064,-26.9146570101" />
      <path d="M -24.5279820064,-26.9146570101 C -24.5301215189,-27.379206051 -24.1958487449,-27.8425506617 -23.5858429029,-28.2193684224 C -22.9793919187,-28.5972861759 -22.1002354791,-28.886560779 -21.1100728175,-29.0330489615 C -20.1214462272,-29.181439109 -19.0274177238,-29.1857566441 -18.0343561109,-29.045821055 C -17.0396888264,-28.9079363865 -16.1537063917,-28.6265235213 -15.5381169669,-28.2605496247" />
      <path d="M 33.9536500834,16.6666764589 C 34.755742913,17.1471190879 35.8286641099,17.1565530921 36.8687138584,16.6923465475 C 37.9095383898,16.2372546802 38.9028606753,15.3151507542 39.5676888891,14.1862295797 C 40.2389330136,13.0612552375 40.5724757819,11.7445010556 40.4714475579,10.6091866399 C 40.3791792388,9.470170508 39.8516468343,8.530103964 39.0436815626,8.059029885" />
      <path d="M -15.5381169669,-28.2605496247 C -15.5383531783,-25.5026990319 -15.5386495704,-23.3224757532 -15.5390946941,-21.4838105143 C -15.5395120366,-19.6474069812 -15.5401780805,-18.1503552676 -15.5404390494,-16.8221325965 C -15.5406217739,-15.496551444 -15.5405098944,-14.3403211813 -15.5372326416,-13.2582462247 C -15.5338469658,-12.1783007113 -15.5273090303,-11.1740657851 -15.5116339303,-10.2101243457 C -15.4802551203,-8.2904253738 -15.4112890095,-6.5111131942 -15.2392924868,-4.9916977257 C -15.1537027938,-4.2342491777 -15.0423218562,-3.5487859632 -14.9044946185,-2.9590875218 C -14.7655969181,-2.3685971873 -14.6046897655,-1.8756512667 -14.4217731606,-1.48024976 C -14.2387992684,-1.0816246632 -14.0409237243,-0.7808583817 -13.839612474,-0.5471369181 C -13.636794539,-0.3133537104 -13.4308464765,-0.1417493545 -13.1865096812,-0.0002772077" />
      <path d="M -13.1865096812,-0.0002772077 C -13.1422086255,0.0257264177 -13.0225094361,0.0836975332 -12.796591193,0.1427461573 C -12.57371555,0.201915755 -12.2579008298,0.2559301345 -11.9039606718,0.2902292763 C -11.3554121795,0.3444200643 -10.7172764266,0.358189911 -10.0511751265,0.3485350715 C -9.3833718246,0.3387497005 -8.684915047,0.306797815 -7.9697704584,0.2660207875 C -6.6544982495,0.1901441141 -5.2883360486,0.0873308251 -3.9002895643,-0.0029379331 C -2.5095985359,-0.0963645248 -1.1024407337,-0.1724250329 0.3211838424,-0.2311194574 C 4.0905325646,-0.3838194645 7.9174868302,-0.3626205468 11.6939476094,-0.1689736531 C 13.4305361919,-0.0813103631 15.1537532615,0.0453434097 16.8635988179,0.2109876654 C 18.5713904455,0.3784376581 20.2612972473,0.5884236812 21.9089068406,0.8655056898 C 23.3874437303,1.1150785898 24.8324950179,1.4198258338 26.2047226045,1.8037722125 C 27.5773309614,2.1859834218 28.8771156174,2.6473937657 30.0754000407,3.163443292 C 31.8400878413,3.9219798121 33.3748347029,4.7647953944 34.8257835338,5.5893299347 C 36.2757800081,6.4176326686 37.6548527634,7.2391390652 39.0436815626,8.059029885" />
      <path d="M -14.5279820064,-26.9146570101 C -14.5279618371,-24.078824835 -14.5279416678,-21.2429926599 -14.5279214985,-18.4071604849 C -14.525293754,-15.5731935005 -14.5343819219,-12.7311481164 -14.5057870037,-9.9189788801 C -14.4909225969,-8.6496007818 -14.4656950482,-7.3891569474 -14.4052879335,-6.1542327344 C -14.3439776165,-4.9218707962 -14.2485097283,-3.7084678464 -14.0687781795,-2.6023529351 C -13.9924406066,-2.1345095426 -13.8999919123,-1.6895483828 -13.7909801681,-1.295553094 C -13.6833360914,-0.9029781396 -13.5551817383,-0.5651378107 -13.4443598693,-0.3498851079 C -13.3543062342,-0.1726517555 -13.286536275,-0.088466022 -13.2581451011,-0.0570623323 C -13.2259279167,-0.0246501185 -13.2320605054,-0.0285564929 -13.1865096812,-0.0002772077" />
      <path d="M -24.5279820064,-26.9146570101 C -24.5279546211,-24.3331434477 -24.5279272358,-21.7516298853 -24.5278998505,-19.1701163229 C -24.5268704369,-16.5885195285 -24.5307370431,-14.0072507843 -24.5183434332,-11.423599676 C -24.5099716299,-9.9309166802 -24.4942953937,-8.4370824011 -24.4454912176,-6.9457682272 C -24.3957432299,-5.4546841357 -24.3128673024,-3.9661201496 -24.1446132029,-2.4901899622 C -23.9302627288,-0.6384544693 -23.5858464993,1.2029058157 -22.9068410801,2.9530264409 C -22.5671756955,3.8256101316 -22.1412040602,4.6703518456 -21.6114004583,5.4537114948 C -21.0828007729,6.2368291411 -20.4482582447,6.9575832943 -19.7235743125,7.5752497734 C -18.9814439237,8.2096433857 -18.1456513959,8.7341188415 -17.2615907108,9.1354396947 C -16.377096614,9.5381617946 -15.4458430732,9.8198287057 -14.4999187004,10.0067165122 C -13.5532037867,10.1940299984 -12.5918740971,10.2885835989 -11.6253228738,10.3281993128 C -10.6580649727,10.3675588384 -9.6852126863,10.3528267839 -8.6964216913,10.3136281028 C -6.4579536585,10.2206635955 -4.1442085107,10.0182103893 -1.7626951954,9.8836002769 C 0.3220478421,9.7614894414 2.4498069069,9.6833793077 4.5823891159,9.6704114475 C 6.7155857792,9.6565448071 8.8532002743,9.7030805866 10.9744574716,9.8074940878 C 13.1644968619,9.9170005965 15.3274492235,10.08167601 17.452555989,10.3315880068 C 19.5691900531,10.5830359174 21.6479785212,10.9197204114 23.4409271901,11.4147147571 C 24.5719549553,11.7254123334 25.5290444577,12.081496892 26.4193809001,12.4787214344 C 27.3090529662,12.8756759546 28.1459321036,13.3151413709 28.9813307037,13.7757554983 C 30.6477698836,14.700668666 32.2860336471,15.6840461248 33.9536500834,16.6666764589" />
    </g>
  </g>
</svg>