<?xml version='1.0' encoding='utf-8'?>
<svg width="444.7748231935mm" height="513.0000000097mm" viewBox="-0.7086913135 -0.8173993331 1.4173826271 1.6347986662" version="1.1" xmlns="http://www.w3.org/2000/svg">
  <g transform="scale(1,-1)" stroke-linecap="round">
    <g fill="none" stroke="rgb(64,192,64)" stroke-width="0.003186742039315863" id="Visible">
      <line x1="0.7070979425" y1="-0.4068960151" x2="0.7070979425" y2="0.4109647708" />
      <line x1="0.7070979425" y1="0.4109647708" x2="0.0035354897" y2="0.0020548239" />
      <line x1="0.0035354897" y1="0.0020548239" x2="0.7070979425" y2="-0.4068960151" />
      <line x1="0.7070979425" y1="-0.4068960151" x2="0.0035354897" y2="0.0020548239" />
      <line x1="0.0035354897" y1="0.0020548239" x2="0.0035354897" y2="-0.8158059621" />
      <line x1="0.0035354897" y1="-0.8158059621" x2="0.7070979425" y2="-0.4068960151" />
      <line x1="-0.7070979425" y1="-0.4109647708" x2="-0.7070979425" y2="0.4068960151" />
      <line x1="-0.7070979425" y1="0.4068960151" x2="-0.0035354897" y2="0.8158059621" />
      <line x1="0.7070979425" y1="0.4109647708" x2="0.7070979425" y2="-0.4068960151" />
      <line x1="-0.0035354897" y1="0.8158059621" x2="0.7070979425" y2="0.4109647708" />
      <line x1="0.0035354897" y1="-0.8158059621" x2="0.0035354897" y2="0.0020548239" />
      <line x1="0.0035354897" y1="0.0020548239" x2="-0.7070979425" y2="0.4068960151" />
      <line x1="-0.7070979425" y1="0.4068960151" x2="0.0035354897" y2="-0.8158059621" />
      <line x1="0.0035354897" y1="-0.8158059621" x2="-0.7070979425" y2="0.4068960151" />
      <line x1="-0.7070979425" y1="0.4068960151" x2="-0.7070979425" y2="-0.4109647708" />
      <line x1="-0.7070979425" y1="-0.4109647708" x2="0.0035354897" y2="-0.8158059621" />
      <line x1="0.0035354897" y1="0.0020548239" x2="0.7070979425" y2="0.4109647708" />
      <line x1="0.7070979425" y1="0.4109647708" x2="-0.0035354897" y2="0.8158059621" />
      <line x1="-0.0035354897" y1="0.8158059621" x2="0.0035354897" y2="0.0020548239" />
      <line x1="0.0035354897" y1="0.0020548239" x2="-0.0035354897" y2="0.8158059621" />
      <line x1="-0.0035354897" y1="0.8158059621" x2="-0.7070979425" y2="0.4068960151" />
      <line x1="-0.7070979425" y1="0.4068960151" x2="0.0035354897" y2="0.0020548239" />
      <line x1="0.7070979425" y1="-0.4068960151" x2="0.0035354897" y2="-0.8158059621" />
      <line x1="0.0035354897" y1="-0.8158059621" x2="-0.7070979425" y2="-0.4109647708" />
    </g>
  </g>
</svg>