<?xml version='1.0' encoding='utf-8'?>
<svg width="513.0000000025mm" height="415.4105449856mm" viewBox="-3.9101890635 -3.1690169704 7.8227173612 6.3345794976" version="1.1" xmlns="http://www.w3.org/2000/svg">
  <g transform="scale(1,-1)" stroke-linecap="round">
    <g fill="none" stroke="rgb(64,192,64)" stroke-width="0.015248961717664114" id="Visible">
      <path d="M -1.4129093436,0.4641409447 C -1.3768969943,0.5059562256 -1.335214952,0.5451879022 -1.2878632168,0.5818359746 C -1.1467879012,0.6923752873 -0.9369007459,0.7865895417 -0.6890025208,0.840395736" />
      <path d="M -1.4414478065,0.4999689918 C -1.3999001685,0.5551596837 -1.3487053053,0.6062629936 -1.2878632168,0.6532789217 C -1.1467879012,0.7638182344 -0.9369007459,0.8580324888 -0.6890025208,0.911838683" />
      <path d="M -0.9858578661,0.178776888 Q -0.8495459161,0.2335144849 -0.6890025208,0.2688521595" />
      <path d="M -1.0680919585,0.2144146262 Q -0.9008342331,0.2934565363 -0.6890025208,0.3402951066" />
      <path d="M -0.6890025208,1.4119393124 C -0.4419161817,1.4666845728 -0.1619895361,1.4798878106 0.0947892421,1.4565989774 C 0.3516907343,1.4344774834 0.6232624813,1.3682031737 0.8534957022,1.2626299717 C 1.0847315594,1.1579322514 1.2698082404,1.0161321944 1.383822076,0.8692440802 C 1.4462131931,0.7902176494 1.4913858303,0.7048423154 1.5193399876,0.6131180782" />
      <path d="M -0.6890025208,1.4833822594 C -0.4419161817,1.5381275198 -0.1619895361,1.5513307576 0.0947892421,1.5280419245 C 0.3516907343,1.5059204304 0.6232624813,1.4396461208 0.8534957022,1.3340729187 C 1.0847315594,1.2293751984 1.2698082404,1.0875751414 1.383822076,0.9406870273 C 1.4582806872,0.8465352751 1.5078264393,0.7440118438 1.5324593323,0.6331167336" />
      <path d="M -0.6890025208,0.840395736 C -0.4419161817,0.8951409963 -0.1619895361,0.9083442341 0.0947892421,0.885055401 C 0.3257224496,0.8650099591 0.5684845802,0.809863167 0.7824500416,0.7217972784 C 0.9969634982,0.6343816982 1.1795300202,0.5150847864 1.3060209009,0.3859054849" />
      <path d="M -0.6890025208,0.911838683 C -0.4419161817,0.9665839434 -0.1619895361,0.9797871812 0.0947892421,0.956498348 C 0.3375836704,0.9354955544 0.5934757976,0.8754095393 0.8151970683,0.7794899045 C 1.0376518605,0.6843220128 1.2220646877,0.5548092748 1.3435519555,0.4173001247" />
      <path d="M -0.6890025208,0.2688521595 C -0.4419161817,0.3235974199 -0.1619895361,0.3368006577 0.0947892421,0.3135118246 C 0.3257404141,0.2934649219 0.5685223906,0.2383108282 0.782499997,0.1502332365" />
      <path d="M -0.6890025208,0.3402951066 C -0.4419161817,0.3950403669 -0.1619895361,0.4082436048 0.0947892421,0.3849547716 C 0.3602673313,0.3621646938 0.6414008721,0.2919576988 0.8764128497,0.1803622966" />
      <path d="M -1.6630637797,0.4839954874 A 2.0,1.1547168227490268 3.89539550234753e-15 0,1 -0.4236446716,-0.0039655301" />
      <path d="M -1.4883996326,1.7050612018 C -1.3248390114,1.7999032623 -1.1200614382,1.8792186532 -0.892062459,1.9325799144" />
      <path d="M -0.8406939969,0.2295139052 C -0.5337754841,0.2962089179 -0.1923402137,0.3143732578 0.122333668,0.2897615773 C 0.2716651545,0.2785677416 0.4215316817,0.2566178139 0.5719332496,0.2239117943" />
      <path d="M -0.8406939969,0.8010574816 C -0.5337754841,0.8677524944 -0.1923402137,0.8859168342 0.122333668,0.8613051538 C 0.2716651545,0.850111318 0.4215316817,0.8281613903 0.5719332496,0.7954553707" />
      <path d="M -0.8406939969,1.372601058 C -0.5337754841,1.4392960708 -0.1923402137,1.4574604107 0.122333668,1.4328487302 C 0.2716651545,1.4216548944 0.4215316817,1.3997049667 0.5719332496,1.3669989472" />
      <path d="M -0.892062459,1.9325799144 C -0.5722792752,2.0084487735 -0.2099936292,2.0305008616 0.122333668,2.0043923066 C 0.4139463747,1.9825814383 0.720115551,1.9183734337 0.9920472089,1.8134751425" />
      <path d="M -1.815006236,1.3277153009 A 1.85,1.0681130610428498 -180.0 0,0 -1.3069671091,1.8796783387" />
      <path d="M -1.815006236,1.3277153009 C -1.732464424,1.5196760429 -1.5436763913,1.6989395816 -1.2780650637,1.8296179756" />
      <path d="M -1.3069671091,1.8796783387 A 1.85,1.0681130610428498 -180.0 1,0 1.3093063433,0.3691258689" />
      <path d="M -1.2780650637,1.8296179756 C -1.111950158,1.910782427 -0.9246751487,1.9711790185 -0.7162400357,2.01080775 C -0.5061492587,2.0503664416 -0.2888135504,2.0666302046 -0.0642329108,2.0595990388 C 0.1613278821,2.052690614 0.3782907425,2.0212246693 0.5866556706,1.9652012047 C 0.7943700089,1.9085640223 0.9789937099,1.8306505443 1.1405267736,1.7314607706 C 1.300191973,1.6327353562 1.4246963673,1.5199318268 1.5140399566,1.3930501823 C 1.6016198074,1.2661128048 1.6452888915,1.1335291846 1.6450472087,0.9952993219 C 1.6445351722,0.7513123352 1.4922634782,0.5087393237 1.2260737975,0.3264807324" />
      <path d="M -0.9047250009,-0.8274924726 A 3.5,2.020754439810797 3.89539550234753e-15 0,1 2.4760228829,-0.3044988812" />
      <path d="M 2.4760228829,-0.3044988812 A 3.5,2.020754439810797 3.89539550234753e-15 0,1 3.3819175009,1.6473956952" />
      <path d="M 3.3819175009,1.6473956952 A 3.5,2.020754439810797 3.89539550234753e-15 0,1 0.9070642351,3.0762966802" />
      <path d="M 0.9070642351,3.0762966802 A 3.5,2.020754439810797 3.89539550234753e-15 0,1 -2.4736836487,2.5533030888" />
      <path d="M -2.4736836487,2.5533030888 A 3.5,2.020754439810797 3.89539550234753e-15 0,1 -3.3795782667,0.6014085124" />
      <path d="M -3.3795782667,0.6014085124 A 3.5,2.020754439810797 3.89539550234753e-15 0,1 -0.9047250009,-0.8274924726" />
      <path d="M 1.3093063433,0.3691258689 A 1.85,1.0681130610428498 -180.0 0,0 0.9952167913,0.2235804644" />
      <path d="M 0.9952167913,0.2235804644 Q 0.6959182557,0.0856841373 0.3264040759,0.0263192245 Q -0.0418589084,-0.0310721173 -0.4236446716,-0.0039655301" />
      <path d="M -1.6630637797,0.4839954874 C -1.9071714151,0.739423919 -1.966469267,1.0493013211 -1.815006236,1.3277153009" />
      <path d="M -0.8506621153,0.1312246917 C -0.613607697,0.0474729728 -0.2999499455,0.0067072771 0.0275890103,0.0209761109 C 0.3556196771,0.0353594176 0.6919053609,0.1055783595 0.9952167913,0.2235804644" />
      <path d="M 0.9070642351,3.0762966802 C 0.2420531612,3.1797446182 -0.4089696217,3.1804599423 -1.0448028147,3.1230247452" />
      <path d="M 2.858931285,2.5190864828 C 2.2203332734,2.773710577 1.5721469296,2.9734031745 0.9070642351,3.0762966802" />
      <line x1="-3.9025644826" y1="1.4730993" x2="-3.9025644826" y2="-0.2617683321" />
      <path d="M -2.4736836487,2.5533030888 C -2.9563387784,2.2757134424 -3.4354261449,1.8991156218 -3.9025644826,1.4730993" />
      <path d="M -1.0448028147,3.1230247452 Q -1.3911385623,3.0402489195 -1.7483302295,2.9026825298 Q -2.1082786504,2.76308855 -2.4736836487,2.5533030888" />
      <path d="M -3.9025644826,-0.2617683321 C -3.7314575634,-0.7862978763 -3.557781532,-1.2599484623 -3.3795782667,-1.6439412521" />
      <path d="M -3.3795782667,-1.6439412521 C -3.2013941916,-2.0284582036 -3.0269581603,-2.3043303462 -2.8565920508,-2.5156320397" />
      <line x1="-2.8565920508" y1="-0.7807644076" x2="-2.8565920508" y2="-2.5156320397" />
      <path d="M -3.3795782667,0.6014085124 C -3.2013941916,0.218022586 -3.0269581603,-0.2578555627 -2.8565920508,-0.7807644076" />
      <path d="M -3.9025644826,1.4730993 C -3.7314575634,1.2602257089 -3.557781532,0.9854013022 -3.3795782667,0.6014085124" />
      <path d="M -2.8565920508,-2.5156320397 C -2.2179940392,-2.770256134 -1.5698076954,-2.9699487314 -0.9047250009,-3.0728422371" />
      <path d="M -0.9047250009,-3.0728422371 C -0.239713927,-3.1762901751 0.4113088559,-3.1770054992 1.0471420489,-3.1195703021" />
      <line x1="1.0471420489" y1="-1.38470267" x2="1.0471420489" y2="-3.1195703021" />
      <path d="M -0.9047250009,-0.8274924726 C -0.239713927,-0.9298093855 0.4113088559,-1.1305307158 1.0471420489,-1.38470267" />
      <path d="M -2.8565920508,-0.7807644076 C -2.2179940392,-0.7237325488 -1.5698076954,-0.7245989669 -0.9047250009,-0.8274924726" />
      <path d="M 1.0471420489,-3.1195703021 C 1.5142803866,-3.0061830491 1.9933677532,-2.8295797785 2.4760228829,-2.5498486457" />
      <path d="M 2.4760228829,-2.5498486457 C 2.9637310777,-2.2689238187 3.4449184615,-1.8895938912 3.9049037168,-1.4696448569" />
      <line x1="3.9049037168" y1="0.2652227752" x2="3.9049037168" y2="-1.4696448569" />
      <path d="M 2.4760228829,-0.3044988812 Q 2.8414278811,-0.09471342 3.201376302,0.0448805598 Q 3.5585679692,0.1824469495 3.9049037168,0.2652227752" />
      <path d="M 1.0471420489,-1.38470267 C 1.5142803866,-0.9586863482 1.9933677532,-0.5820885276 2.4760228829,-0.3044988812" />
      <path d="M 3.3819175009,1.6473956952 C 3.2037334258,2.0319126466 3.0292973945,2.3077847892 2.858931285,2.5190864828" />
      <path d="M 3.9049037168,0.2652227752 C 3.7337967976,0.7897523194 3.5601207662,1.2634029054 3.3819175009,1.6473956952" />
      <path d="M -0.8506621153,0.1312246917 C -1.0821236906,0.2018192351 -1.267389529,0.3099412157 -1.3814828418,0.4295054373 C -1.4839602001,0.5350781319 -1.5447177058,0.6597737516 -1.5441670459,0.7861244598" />
      <path d="M -1.5441670459,0.7861244598 C -1.5455873816,0.9449185107 -1.4471567151,1.1026248664 -1.2878632168,1.2248224981 C -1.1467879012,1.3353618108 -0.9369007459,1.4295760652 -0.6890025208,1.4833822594" />
      <path d="M -1.5426146202,0.7503971021 C -1.5308772362,0.8971337424 -1.4349163762,1.0402774128 -1.2878632168,1.153379551 C -1.1467879012,1.2639188637 -0.9369007459,1.3581331181 -0.6890025208,1.4119393124" />
    </g>
  </g>
</svg>