<?xml version='1.0' encoding='utf-8'?>
<svg width="512.9999999998mm" height="308.9201435677mm" viewBox="-42.5092709471 -25.5983822299 85.0185418942 51.1967644598" version="1.1" xmlns="http://www.w3.org/2000/svg">
  <g transform="scale(1,-1)" stroke-linecap="round">
    <g fill="none" stroke="rgb(64,192,64)" stroke-width="0.16572815184059703" id="Visible">
      <line x1="-3.3703282945" y1="0.2231487042" x2="-2.8284271247" y2="0.6123724357" />
      <line x1="-3.5654499311" y1="-0.0039962724" x2="-3.3703282945" y2="0.2231487042" />
      <line x1="3.2487554911" y1="0.326671343" x2="3.5784596928" y2="-0.0100159999" />
      <line x1="2.6711510352" y1="0.6983859781" x2="3.2487554911" y2="0.326671343" />
      <line x1="1.9686465256" y1="0.9897217702" x2="2.6711510352" y2="0.6983859781" />
      <line x1="1.1740902924" y1="1.1870561815" x2="1.9686465256" y2="0.9897217702" />
      <line x1="0.3246349021" y1="1.2811620742" x2="1.1740902924" y2="1.1870561815" />
      <line x1="-0.5400000554" y1="1.2676391615" x2="0.3246349021" y2="1.2811620742" />
      <line x1="-1.3793852105" y1="1.1471197596" x2="-0.5400000554" y2="1.2676391615" />
      <line x1="-2.1542718462" y1="0.9252392219" x2="-1.3793852105" y2="1.1471197596" />
      <line x1="-2.8284271247" y1="0.6123724357" x2="-2.1542718462" y2="0.9252392219" />
      <line x1="28.2842712475" y1="-25.515518154" x2="42.4264068712" y2="-17.3505523447" />
      <line x1="42.4264068712" y1="-17.3505523447" x2="42.4264068712" y2="-15.3093108924" />
      <line x1="-3.3703282945" y1="2.2643901565" x2="-2.8284271247" y2="2.653613888" />
      <line x1="-3.754636659" y1="1.8170091488" x2="-3.3703282945" y2="2.2643901565" />
      <line x1="-3.9633823863" y1="1.3323899035" x2="-3.754636659" y2="1.8170091488" />
      <line x1="-3.9999999802" y1="1.0208503476" x2="-3.9633823863" y2="1.3323899035" />
      <line x1="-3.9868047582" y1="0.833192678" x2="-3.9999999802" y2="1.0208503476" />
      <line x1="-3.8238085707" y1="0.3427593798" x2="-3.9868047582" y2="0.833192678" />
      <line x1="-3.4820153442" y1="-0.1159778753" x2="-3.8238085707" y2="0.3427593798" />
      <line x1="-2.9774069502" y1="-0.521569043" x2="-3.4820153442" y2="-0.1159778753" />
      <line x1="-2.3335783164" y1="-0.8550491312" x2="-2.9774069502" y2="-0.521569043" />
      <line x1="-1.5806341541" y1="-1.1008249814" x2="-2.3335783164" y2="-0.8550491312" />
      <line x1="-0.7537812955" y1="-1.2474043882" x2="-1.5806341541" y2="-1.1008249814" />
      <line x1="0.1083175387" y1="-1.2879334614" x2="-0.7537812955" y2="-1.2474043882" />
      <line x1="0.9653515652" y1="-1.2205171065" x2="0.1083175387" y2="-1.2879334614" />
      <line x1="1.7772468254" y1="-1.0483076375" x2="0.9653515652" y2="-1.2205171065" />
      <line x1="2.5060399993" y1="-0.7793573776" x2="1.7772468254" y2="-1.0483076375" />
      <line x1="3.1176535282" y1="-0.4262421421" x2="2.5060399993" y2="-0.7793573776" />
      <line x1="3.583489043" y1="-0.0054732069" x2="3.1176535282" y2="-0.4262421421" />
      <line x1="3.881764593" y1="0.4632747401" x2="3.583489043" y2="-0.0054732069" />
      <line x1="3.9985331449" y1="0.958083566" x2="3.881764593" y2="0.4632747401" />
      <line x1="3.9999999611" y1="1.0209429528" x2="3.9985331449" y2="0.958083566" />
      <line x1="3.928334731" y1="1.45581656" x2="3.9999999611" y2="1.0209429528" />
      <line x1="3.6744517511" y1="1.9332002805" x2="3.928334731" y2="1.45581656" />
      <line x1="3.2487554911" y1="2.3679127953" x2="3.6744517511" y2="1.9332002805" />
      <line x1="2.6711510352" y1="2.7396274304" x2="3.2487554911" y2="2.3679127953" />
      <line x1="1.9686465256" y1="3.0309632225" x2="2.6711510352" y2="2.7396274304" />
      <line x1="1.1740902924" y1="3.2282976338" x2="1.9686465256" y2="3.0309632225" />
      <line x1="0.3246349021" y1="3.3224035265" x2="1.1740902924" y2="3.2282976338" />
      <line x1="-0.5400000554" y1="3.3088806138" x2="0.3246349021" y2="3.3224035265" />
      <line x1="-1.3793852105" y1="3.1883612119" x2="-0.5400000554" y2="3.3088806138" />
      <line x1="-2.1542718462" y1="2.9664806742" x2="-1.3793852105" y2="3.1883612119" />
      <line x1="-2.8284271247" y1="2.653613888" x2="-2.1542718462" y2="2.9664806742" />
      <line x1="28.2842712475" y1="-23.4742767017" x2="42.4264068712" y2="-15.3093108924" />
      <line x1="-28.2842712475" y1="25.515518154" x2="42.4264068712" y2="-15.3093108924" />
      <line x1="-42.4264068712" y1="17.3505523447" x2="28.2842712475" y2="-23.4742767017" />
      <line x1="28.2842712475" y1="-25.515518154" x2="28.2842712475" y2="-23.4742767017" />
      <line x1="-42.4264068712" y1="15.3093108924" x2="28.2842712475" y2="-25.515518154" />
      <line x1="-42.4264068712" y1="17.3505523447" x2="-28.2842712475" y2="25.515518154" />
      <line x1="-42.4264068712" y1="15.3093108924" x2="-42.4264068712" y2="17.3505523447" />
    </g>
  </g>
</svg>